<svg width="41" height="45" viewBox="0 0 41 45" fill="none" xmlns="http://www.w3.org/2000/svg">
<path fill-rule="evenodd" clip-rule="evenodd" d="M16.5 4C16.7761 4 17 4.22386 17 4.5V8.78852C17.6524 7.6369 18.7281 6.86789 19.8472 6.37129C21.3245 5.71577 22.9465 5.5 24 5.5H24.5332L24.499 6.03213C24.3954 7.64072 24.028 8.84341 23.4607 9.71135C22.8873 10.5888 22.1266 11.0971 21.3003 11.334C19.7969 11.7652 18.1368 11.2862 17 10.7079V15.7885C17.6524 14.6369 18.7281 13.8679 19.8472 13.3713C21.3245 12.7158 22.9465 12.5 24 12.5H24.5332L24.499 13.0321C24.3954 14.6407 24.028 15.8434 23.4607 16.7113C22.8873 17.5888 22.1266 18.097 21.3003 18.334C19.7969 18.7652 18.1368 18.2862 17 17.7079V22.7885C17.6524 21.6369 18.7281 20.8679 19.8472 20.3713C21.3245 19.7158 22.9465 19.5 24 19.5H24.5332L24.499 20.0321C24.3954 21.6407 24.028 22.8434 23.4607 23.7113C22.8873 24.5888 22.1266 25.097 21.3003 25.334C19.7969 25.7652 18.1368 25.2862 17 24.7079V28C17 28.2761 16.7761 28.5 16.5 28.5C16.2239 28.5 16 28.2761 16 28V24.0623C14.8635 24.622 13.2045 25.0849 11.704 24.6694C10.8813 24.4415 10.1197 23.9517 9.54371 23.1005C8.97369 22.2581 8.60498 21.0913 8.50111 19.5333L8.46556 19H9C10.0515 19 11.6714 19.208 13.147 19.8404C14.2647 20.3195 15.3451 21.0639 16 22.1846V16.5623C14.8635 17.122 13.2045 17.5849 11.704 17.1694C10.8813 16.9415 10.1197 16.4517 9.54371 15.6005C8.97369 14.7581 8.60498 13.5913 8.50111 12.0333L8.46556 11.5H9C10.0515 11.5 11.6714 11.708 13.147 12.3404C14.2647 12.8195 15.3451 13.5639 16 14.6846V8.56231C14.8635 9.12199 13.2045 9.58494 11.704 9.16936C10.8813 8.94149 10.1197 8.45172 9.54371 7.60052C8.97369 6.75812 8.60498 5.59128 8.50111 4.03326L8.46556 3.5H9C10.0515 3.5 11.6714 3.70803 13.147 4.34043C14.2647 4.81947 15.3451 5.56391 16 6.68461V4.5C16 4.22386 16.2239 4 16.5 4ZM9.54978 20.0191C9.68634 21.1639 9.98932 21.9747 10.3719 22.5401C10.8074 23.1837 11.3645 23.5377 11.971 23.7056C13.0803 24.0129 14.394 23.704 15.3976 23.2418C14.9605 22.0654 13.9531 21.2739 12.753 20.7596C11.663 20.2924 10.4676 20.0797 9.54978 20.0191ZM10.3719 7.04011C9.98932 6.47468 9.68634 5.66393 9.54978 4.51906C10.4676 4.57972 11.663 4.79243 12.753 5.25957C13.9531 5.7739 14.9605 6.56536 15.3976 7.74184C14.394 8.20401 13.0803 8.51289 11.971 8.20564C11.3645 8.03768 10.8074 7.6837 10.3719 7.04011ZM23.4525 6.51962C23.3167 7.72073 23.011 8.57152 22.6236 9.16428C22.1856 9.83449 21.6275 10.1999 21.0247 10.3728C19.9161 10.6907 18.6001 10.3686 17.5957 9.88708C18.0312 8.64651 19.0489 7.81955 20.2528 7.28534C21.3419 6.80206 22.5362 6.58221 23.4525 6.51962ZM22.6236 23.1643C23.011 22.5715 23.3167 21.7207 23.4525 20.5196C22.5362 20.5822 21.3419 20.8021 20.2528 21.2853C19.0489 21.8195 18.0312 22.6465 17.5957 23.8871C18.6001 24.3686 19.9161 24.6907 21.0247 24.3728C21.6275 24.1999 22.1856 23.8345 22.6236 23.1643ZM23.4525 13.5196C23.3167 14.7207 23.011 15.5715 22.6236 16.1643C22.1856 16.8345 21.6275 17.1999 21.0247 17.3728C19.9161 17.6907 18.6001 17.3686 17.5957 16.8871C18.0312 15.6465 19.0489 14.8195 20.2528 14.2853C21.3419 13.8021 22.5362 13.5822 23.4525 13.5196ZM10.3719 15.0401C9.98932 14.4747 9.68634 13.6639 9.54978 12.5191C10.4676 12.5797 11.663 12.7924 12.753 13.2596C13.9531 13.7739 14.9605 14.5654 15.3976 15.7418C14.394 16.204 13.0803 16.5129 11.971 16.2056C11.3645 16.0377 10.8074 15.6837 10.3719 15.0401Z" fill="#094361"/>
<path d="M6 33.5C6 33.2239 6.22386 33 6.5 33H25C25.2761 33 25.5 33.2239 25.5 33.5C25.5 33.7761 25.2761 34 25 34H6.5C6.22386 34 6 33.7761 6 33.5Z" fill="#094361"/>
<path fill-rule="evenodd" clip-rule="evenodd" d="M4 31H28V36H4V31ZM5 32V35H27V32H5Z" fill="#094361"/>
<path d="M3 40C3 39.7239 3.22386 39.5 3.5 39.5H5.5C5.77614 39.5 6 39.7239 6 40C6 40.2761 5.77614 40.5 5.5 40.5H3.5C3.22386 40.5 3 40.2761 3 40Z" fill="#094361"/>
<path d="M7 40C7 39.7239 7.22386 39.5 7.5 39.5H9.5C9.77614 39.5 10 39.7239 10 40C10 40.2761 9.77614 40.5 9.5 40.5H7.5C7.22386 40.5 7 40.2761 7 40Z" fill="#094361"/>
<path d="M11.5 40C11.5 39.7239 11.7239 39.5 12 39.5H27.5C27.7761 39.5 28 39.7239 28 40C28 40.2761 27.7761 40.5 27.5 40.5H12C11.7239 40.5 11.5 40.2761 11.5 40Z" fill="#094361"/>
<path d="M33.5 31.5C33.5 31.2239 33.7239 31 34 31H37C37.2761 31 37.5 31.2239 37.5 31.5C37.5 31.7761 37.2761 32 37 32H34C33.7239 32 33.5 31.7761 33.5 31.5Z" fill="#094361"/>
<path d="M33.5 35.5C33.5 35.2239 33.7239 35 34 35H37C37.2761 35 37.5 35.2239 37.5 35.5C37.5 35.7761 37.2761 36 37 36H34C33.7239 36 33.5 35.7761 33.5 35.5Z" fill="#094361"/>
<path d="M33.5 39C33.5 38.7239 33.7239 38.5 34 38.5H37C37.2761 38.5 37.5 38.7239 37.5 39C37.5 39.2761 37.2761 39.5 37 39.5H34C33.7239 39.5 33.5 39.2761 33.5 39Z" fill="#094361"/>
<path fill-rule="evenodd" clip-rule="evenodd" d="M0 0.5H40.5V44.5H0V0.5ZM1 1.5V43.5H31V1.5H1ZM32 1.5V43.5H39.5V1.5H37.5V28.5H33.5V1.5H32ZM34.5 1.5V27.5H36.5V1.5H34.5Z" fill="#094361"/>
</svg>
