<svg width="22" height="22" viewBox="0 0 22 22" fill="none" xmlns="http://www.w3.org/2000/svg">
<g clip-path="url(#clip0_2_28)">
<circle cx="11" cy="11" r="10" stroke="black" stroke-width="2"/>
<path d="M9.69531 12.541C9.6862 12.4408 9.66341 12.2357 9.62695 11.9258C9.59049 11.6159 9.57227 11.363 9.57227 11.167C9.57227 10.8571 9.6748 10.5745 9.87988 10.3193C10.085 10.0641 10.3835 9.7679 10.7754 9.43066C11.1582 9.10254 11.4476 8.81771 11.6436 8.57617C11.8395 8.33464 11.9375 8.07487 11.9375 7.79688C11.9375 7.18164 11.516 6.87402 10.6729 6.87402C10.4222 6.87402 10.1693 6.89453 9.91406 6.93555C9.66341 6.97656 9.50163 7.00618 9.42871 7.02441L9.16211 5.56836C9.2168 5.55013 9.35352 5.51595 9.57227 5.46582C9.79557 5.41569 10.0622 5.36556 10.3721 5.31543C10.6865 5.26074 10.9782 5.2334 11.2471 5.2334C12.0492 5.2334 12.7168 5.4043 13.25 5.74609C13.7832 6.08789 14.0498 6.6416 14.0498 7.40723C14.0498 7.78092 13.9792 8.12728 13.8379 8.44629C13.6966 8.76074 13.528 9.0319 13.332 9.25977C13.1361 9.48763 12.8763 9.76107 12.5527 10.0801C12.1973 10.4264 11.9375 10.7113 11.7734 10.9346C11.6094 11.1579 11.5273 11.3949 11.5273 11.6455C11.5273 11.8232 11.5319 11.9896 11.541 12.1445C11.5501 12.2995 11.5547 12.4043 11.5547 12.459L9.69531 12.541ZM9.57227 14.9062C9.57227 14.5234 9.69076 14.2181 9.92773 13.9902C10.1647 13.7624 10.4473 13.6484 10.7754 13.6484C11.1582 13.6484 11.4499 13.7578 11.6504 13.9766C11.8509 14.1953 11.9512 14.5052 11.9512 14.9062C11.9512 15.2982 11.8304 15.6104 11.5889 15.8428C11.3519 16.0706 11.0648 16.1846 10.7275 16.1846C10.3447 16.1846 10.0553 16.0752 9.85938 15.8564C9.66797 15.6331 9.57227 15.3164 9.57227 14.9062Z" fill="black"/>
</g>
<defs>
<clipPath id="clip0_2_28">
<rect width="22" height="22" fill="white"/>
</clipPath>
</defs>
</svg>
