<svg width="44" height="45" viewBox="0 0 44 45" fill="none" xmlns="http://www.w3.org/2000/svg">
<path fill-rule="evenodd" clip-rule="evenodd" d="M22 32C23.6569 32 25 30.6569 25 29C25 27.3431 23.6569 26 22 26C20.3431 26 19 27.3431 19 29C19 30.6569 20.3431 32 22 32ZM22 31C23.1046 31 24 30.1046 24 29C24 27.8954 23.1046 27 22 27C20.8954 27 20 27.8954 20 29C20 30.1046 20.8954 31 22 31Z" fill="#094361"/>
<path fill-rule="evenodd" clip-rule="evenodd" d="M19 0.5V14.3504C17.3961 16.8239 16.3441 20.3965 16.0119 21.8915L16 21.9451V44.5H28V22C28 20.6779 27.4129 19.0907 26.6953 17.6852C26.0142 16.3509 25.1791 15.1107 24.5 14.3131V0.5H19ZM20 4V1.5H23.5V4H20ZM20 5H23.5V14.6901L23.6263 14.8322C24.2599 15.545 25.112 16.7831 25.8047 18.1398C26.5038 19.5093 27 20.9221 27 22V43.5H17V22.0554C17.3416 20.5465 18.3854 17.0733 19.916 14.7774L20 14.6514V5Z" fill="#094361"/>
<path fill-rule="evenodd" clip-rule="evenodd" d="M4 1V13.6156C3.09172 13.872 2.17578 14.2432 1.45 14.7875C0.609009 15.4182 0 16.3036 0 17.5L3.57628e-06 44.5H14V17.4505L13.9903 17.4019C13.4713 14.8069 11.3853 13.9815 9.88 13.6041V4.50999L10.0204 1H4ZM8.9796 2L8.8996 4H5V2H8.9796ZM5 5H8.88V14.4011L9.27154 14.4881C10.7528 14.8173 12.5491 15.4183 13 17.5509V23.5H1L1 17.5C0.999999 16.6964 1.39099 16.0818 2.05 15.5875C2.72309 15.0827 3.64931 14.7281 4.62127 14.4851L5 14.3904V5ZM1 24.5H13V35.5H1V24.5ZM1 36.5H13V43.5H1V36.5Z" fill="#094361"/>
<path fill-rule="evenodd" clip-rule="evenodd" d="M32 19H41V40H32V19ZM33 20H40V39H33V20Z" fill="#094361"/>
<path fill-rule="evenodd" clip-rule="evenodd" d="M33.5 1V7.26229C32.6579 7.95897 31.5318 9.03893 30.6727 10.2031C30.2106 10.8292 29.8106 11.5 29.5806 12.1646C29.3624 12.7952 29.2827 13.4647 29.5 14.09V44.5H43.5V13.9505L43.4903 13.9019C43.314 13.0205 42.8711 11.6431 42.1077 10.3245C41.3976 9.09788 40.3824 7.87504 39 7.1813V1H33.5ZM34.5 4V2H38V4H34.5ZM34.5 5H38V7.8297L38.303 7.95957C39.5647 8.50029 40.5367 9.60674 41.2423 10.8255C41.9315 12.016 42.3363 13.262 42.5 14.0504V43.5H30.5V13.9037L30.4642 13.8143C30.3251 13.4666 30.3405 13.0266 30.5256 12.4917C30.7102 11.9583 31.0477 11.3791 31.4773 10.7969C32.336 9.63328 33.5019 8.53876 34.3123 7.89043L34.5 7.74031V5Z" fill="#094361"/>
</svg>
