<svg width="29" height="38" viewBox="0 0 29 38" fill="none" xmlns="http://www.w3.org/2000/svg">
<path d="M11.999 27.0312C12.0163 26.7556 11.8068 26.5182 11.5312 26.501C11.2556 26.4838 11.0182 26.6932 11.001 26.9688C10.7936 30.2862 11.7873 32.3008 13.2312 33.4202C14.6477 34.5183 16.3981 34.6754 17.576 34.4942C17.849 34.4522 18.0362 34.1969 17.9942 33.924C17.9522 33.651 17.6969 33.4638 17.424 33.5058C16.4353 33.6579 14.9856 33.515 13.8438 32.6298C12.7294 31.7659 11.8064 30.1138 11.999 27.0312Z" fill="#094361"/>
<path d="M20.5 34C20.7761 34 21 33.7761 21 33.5C21 33.2239 20.7761 33 20.5 33C20.2239 33 20 33.2239 20 33.5C20 33.7761 20.2239 34 20.5 34Z" fill="#094361"/>
<path fill-rule="evenodd" clip-rule="evenodd" d="M5.30866 9.19335L7.97104 14.0744C6.98934 18.5228 6.48191 24.9447 8.17667 29.9236C9.03983 32.4594 10.4882 34.6597 12.7742 36.0073C15.0627 37.3564 18.1162 37.8071 22.1005 36.9898L22.17 36.9755L22.2329 36.9425C25.4597 35.2442 28.9929 31.8704 28.5729 27.3042C28.1568 22.7797 23.8739 17.4022 12.354 11.6181L9.69599 7.18813C11.0703 6.36016 11.6033 5.31595 11.5748 4.26149C11.5451 3.16089 10.9034 2.19632 10.3536 1.64644L10.3062 1.59909L10.2481 1.56588C8.73021 0.698521 7.49413 0.741596 6.57247 1.28096C5.85559 1.7005 5.40087 2.3797 5.15486 2.97512C4.16872 2.92875 3.36777 3.06191 2.72788 3.34194C1.99747 3.66158 1.50394 4.16127 1.19794 4.74189C0.600986 5.87461 0.744449 7.25267 1.02249 8.14826L1.02838 8.16724L1.03577 8.1857C1.27147 8.77495 1.62743 9.19249 2.07222 9.44883C2.51142 9.70195 2.99515 9.77384 3.45185 9.74929C4.12332 9.71318 4.7891 9.46657 5.30866 9.19335ZM5.98078 3.63736C6.12494 3.1328 6.49005 2.48786 7.07755 2.14403C7.61411 1.83004 8.44358 1.70536 9.69255 2.40062C10.1274 2.85389 10.5556 3.56467 10.5752 4.28852C10.5936 4.97077 10.2508 5.81562 8.7764 6.55278L8.29348 6.79425L11.4709 12.0899C11.3719 12.4869 11.1447 12.9674 10.7621 13.2954C10.3807 13.6223 9.78736 13.8486 8.84165 13.5822L5.67731 7.78089L5.22266 8.08397C4.76438 8.3895 4.05118 8.71561 3.39817 8.75072C3.07987 8.76784 2.8011 8.71473 2.57155 8.58242C2.35091 8.45527 2.13503 8.23178 1.97158 7.83243C1.73688 7.06284 1.66419 6.00206 2.0826 5.20812C2.28606 4.82206 2.61194 4.48424 3.12879 4.25806C3.65383 4.02829 4.40155 3.90311 5.45517 3.99799L5.86713 4.03508L5.98078 3.63736ZM11.4129 14.0546C11.8591 13.6721 12.1481 13.1789 12.3196 12.7212C23.4793 18.4017 27.2173 23.4835 27.5771 27.3958C27.938 31.3197 24.9147 34.3812 21.8297 36.0244C18.0498 36.7873 15.2874 36.328 13.282 35.1458C11.2618 33.9549 9.93518 31.9864 9.12334 29.6014C7.55391 24.9907 7.96077 18.9692 8.8765 14.6194C9.96215 14.8441 10.8063 14.5746 11.4129 14.0546Z" fill="#094361"/>
</svg>
