<svg width="38" height="38" viewBox="0 0 38 38" fill="none" xmlns="http://www.w3.org/2000/svg">
<g clip-path="url(#clip0_7_97)">
<mask id="mask0_7_97" style="mask-type:luminance" maskUnits="userSpaceOnUse" x="1" y="0" width="36" height="37">
<path fill-rule="evenodd" clip-rule="evenodd" d="M19.5856 0.553596L18.033 1.99904L17.9649 3.90251L15.1748 1.09964L13.8264 1.41358L13.5063 2.76058L17.8497 7.12392L17.7562 9.74109L14.7403 6.71142L13.3531 7.02398L13.0342 8.40977L13.7025 9.0812L12.6274 8.70443L11.6161 9.54904L12.2967 13.3024L9.59712 11.7392L9.87692 11.6885L8.87086 6.14018L7.62739 5.70443L6.61608 6.54904L7.31788 10.4193L5.30142 9.25167L3.25168 9.79807L3.79807 11.8478L5.44634 12.8023L1.66117 13.9482L1.30469 15.286L2.34332 16.2015L8.23586 14.4176L10.5022 15.73L6.41069 16.9686L6.03477 18.34L6.76556 18.975L6.52708 19.2301L6.89273 20.496L10.6023 21.385L8.08398 23.2261L8.15026 22.9496L2.66681 21.6354L1.76705 22.5979L2.13271 23.8638L5.95779 24.7806L4.07673 26.1558L3.75111 28.252L5.84728 28.5776L7.3849 27.4535L6.90889 31.3796L7.98976 32.2448L9.24608 31.6629L9.98711 25.551L12.1012 24.0054L11.5867 28.2492L12.6905 29.1457L13.1302 28.9382L13.2212 29.4064L14.4607 29.8533L17.3577 27.3716L17.3704 30.4911L17.1854 30.2751L12.9031 33.9436L13.1544 35.237L14.3939 35.6839L17.3811 33.1249L17.3906 35.455L18.8967 36.9489L20.3906 35.4428L20.3828 33.5381L23.2823 36.2277L24.6172 35.8604L24.8834 34.5017L20.3697 30.3147L20.359 27.6959L23.4931 30.6031L24.8668 30.2356L25.1303 28.8382L24.4357 28.1939L25.525 28.5276L26.5019 27.6434L25.6725 23.9201L28.4321 25.3746L28.1546 25.4365L29.3806 30.9403L30.6405 31.3262L31.6173 30.442L30.7621 26.6027L32.8234 27.6892L34.8498 27.0617L34.2223 25.0353L32.5373 24.1472L36.2739 22.8515L36.5768 21.5006L35.5026 20.6272L29.6857 22.6441L27.369 21.423L31.4079 20.0225L31.7289 18.6372L31.0854 18.1216L30.9253 17.4712L27.2541 16.4352L29.8436 14.6958L29.7664 14.9695L35.1932 16.5009L36.1305 15.5749L35.8156 14.2955L32.03 13.2272L33.9643 11.928L34.3731 9.8464L32.2915 9.43761L30.7104 10.4996L31.3423 6.59562L30.2967 5.68808L29.0182 6.21946L28.0345 12.297L25.8606 13.7573L26.5436 9.53732L25.4764 8.59757L25.0287 8.7874L24.9564 8.31597L23.7357 7.82012L20.7422 10.1845L20.8537 7.06702L21.0299 7.29016L25.4549 3.79508L25.2552 2.49268L24.0345 1.99683L20.9478 4.4349L21.0311 2.10624L19.5856 0.553596ZM14.1508 27.1014L14.7005 22.5678L16.6158 23.8805L17.3455 24.3762L17.3462 24.5543L17.2522 24.4446L14.1508 27.1014ZM24.2355 28.0081L20.4615 24.5073L21.3843 23.8805L23.0601 22.7319L24.2355 28.0081ZM24.4531 19.8861L23.7676 19.5248L23.7685 19L23.7681 18.7767L24.9153 18.0061L24.8761 18.1452L27.4109 18.8605L24.4531 19.8861ZM23.9358 10.5822L23.1657 15.3405L21.3843 14.1195L20.6201 13.6005L20.6416 13L20.7311 13.1135L23.9358 10.5822ZM17.6384 13.0351L17.6241 13.4346L16.6158 14.1195L15.284 15.0323L14.7347 14.7142L14.8769 14.6885L13.8953 9.27481L17.6384 13.0351ZM13.3545 17.3817L14.2333 17.8906L14.2319 18.7314L12.8766 19.7223L12.9103 19.5818L9.10211 18.6691L13.3545 17.3817Z" fill="white"/>
</mask>
<g mask="url(#mask0_7_97)">
<path fill-rule="evenodd" clip-rule="evenodd" d="M19.5856 0.553596L18.033 1.99904L17.9649 3.90251L15.1748 1.09964L13.8264 1.41358L13.5063 2.76058L17.8497 7.12392L17.7562 9.74109L14.7403 6.71142L13.3531 7.02398L13.0342 8.40977L13.7025 9.0812L12.6274 8.70443L11.6161 9.54904L12.2967 13.3024L9.59712 11.7392L9.87692 11.6885L8.87086 6.14018L7.62739 5.70443L6.61608 6.54904L7.31788 10.4193L5.30142 9.25167L3.25168 9.79807L3.79807 11.8478L5.44634 12.8023L1.66117 13.9482L1.30469 15.286L2.34332 16.2015L8.23586 14.4176L10.5022 15.73L6.41069 16.9686L6.03477 18.34L6.76556 18.975L6.52708 19.2301L6.89273 20.496L10.6023 21.385L8.08398 23.2261L8.15026 22.9496L2.66681 21.6354L1.76705 22.5979L2.13271 23.8638L5.95779 24.7806L4.07673 26.1558L3.75111 28.252L5.84728 28.5776L7.3849 27.4535L6.90889 31.3796L7.98976 32.2448L9.24608 31.6629L9.98711 25.551L12.1012 24.0054L11.5867 28.2492L12.6905 29.1457L13.1302 28.9382L13.2212 29.4064L14.4607 29.8533L17.3577 27.3716L17.3704 30.4911L17.1854 30.2751L12.9031 33.9436L13.1544 35.237L14.3939 35.6839L17.3811 33.1249L17.3906 35.455L18.8967 36.9489L20.3906 35.4428L20.3828 33.5381L23.2823 36.2277L24.6172 35.8604L24.8834 34.5017L20.3697 30.3147L20.359 27.6959L23.4931 30.6031L24.8668 30.2356L25.1303 28.8382L24.4357 28.1939L25.525 28.5276L26.5019 27.6434L25.6725 23.9201L28.4321 25.3746L28.1546 25.4365L29.3806 30.9403L30.6405 31.3262L31.6173 30.442L30.7621 26.6027L32.8234 27.6892L34.8498 27.0617L34.2223 25.0353L32.5373 24.1472L36.2739 22.8515L36.5768 21.5006L35.5026 20.6272L29.6857 22.6441L27.369 21.423L31.4079 20.0225L31.7289 18.6372L31.0854 18.1216L30.9253 17.4712L27.2541 16.4352L29.8436 14.6958L29.7664 14.9695L35.1932 16.5009L36.1305 15.5749L35.8156 14.2955L32.03 13.2272L33.9643 11.928L34.3731 9.8464L32.2915 9.43761L30.7104 10.4996L31.3423 6.59562L30.2967 5.68808L29.0182 6.21946L28.0345 12.297L25.8606 13.7573L26.5436 9.53732L25.4764 8.59757L25.0287 8.7874L24.9564 8.31597L23.7357 7.82012L20.7422 10.1845L20.8537 7.06702L21.0299 7.29016L25.4549 3.79508L25.2552 2.49268L24.0345 1.99683L20.9478 4.4349L21.0311 2.10624L19.5856 0.553596ZM14.1508 27.1014L14.7005 22.5678L16.6158 23.8805L17.3455 24.3762L17.3462 24.5543L17.2522 24.4446L14.1508 27.1014ZM24.2355 28.0081L20.4615 24.5073L21.3843 23.8805L23.0601 22.7319L24.2355 28.0081ZM24.4531 19.8861L23.7676 19.5248L23.7685 19L23.7681 18.7767L24.9153 18.0061L24.8761 18.1452L27.4109 18.8605L24.4531 19.8861ZM23.9358 10.5822L23.1657 15.3405L21.3843 14.1195L20.6201 13.6005L20.6416 13L20.7311 13.1135L23.9358 10.5822ZM17.6384 13.0351L17.6241 13.4346L16.6158 14.1195L15.284 15.0323L14.7347 14.7142L14.8769 14.6885L13.8953 9.27481L17.6384 13.0351ZM13.3545 17.3817L14.2333 17.8906L14.2319 18.7314L12.8766 19.7223L12.9103 19.5818L9.10211 18.6691L13.3545 17.3817Z" stroke="#094361"/>
</g>
</g>
<defs>
<clipPath id="clip0_7_97">
<rect width="37" height="37" fill="white" transform="translate(0.5 0.5)"/>
</clipPath>
</defs>
</svg>
