<svg width="37" height="37" viewBox="0 0 37 37" fill="none" xmlns="http://www.w3.org/2000/svg">
<mask id="path-1-inside-1_1_133" fill="white">
<path fill-rule="evenodd" clip-rule="evenodd" d="M19.0856 0.0535984L17.533 1.49904L17.4649 3.40251L14.6748 0.599643L13.3264 0.913581L13.0063 2.26058L17.3497 6.62392L17.2562 9.24109L14.2403 6.21142L12.8531 6.52398L12.5342 7.90977L13.2025 8.5812L12.1274 8.20443L11.1161 9.04904L11.7967 12.8024L9.09712 11.2392L9.37692 11.1885L8.37086 5.64018L7.12739 5.20443L6.11608 6.04904L6.81788 9.91935L4.80142 8.75167L2.75168 9.29807L3.29807 11.3478L4.94634 12.3023L1.16117 13.4482L0.804688 14.786L1.84332 15.7015L7.73586 13.9176L10.0022 15.23L5.91069 16.4686L5.53477 17.84L6.26556 18.475L6.02708 18.7301L6.39273 19.996L10.1023 20.885L7.58398 22.7261L7.65026 22.4496L2.16681 21.1354L1.26705 22.0979L1.63271 23.3638L5.45779 24.2806L3.57673 25.6558L3.25111 27.752L5.34728 28.0776L6.8849 26.9535L6.40889 30.8796L7.48976 31.7448L8.74608 31.1629L9.48711 25.051L11.6012 23.5054L11.0867 27.7492L12.1905 28.6457L12.6302 28.4382L12.7212 28.9064L13.9607 29.3533L16.8577 26.8716L16.8704 29.9911L16.6854 29.7751L12.4031 33.4436L12.6544 34.737L13.8939 35.1839L16.8811 32.6249L16.8906 34.955L18.3967 36.4489L19.8906 34.9428L19.8828 33.0381L22.7823 35.7277L24.1172 35.3604L24.3834 34.0017L19.8697 29.8147L19.859 27.1959L22.9931 30.1031L24.3668 29.7356L24.6303 28.3382L23.9357 27.6939L25.025 28.0276L26.0019 27.1434L25.1725 23.4201L27.9321 24.8746L27.6546 24.9365L28.8806 30.4403L30.1405 30.8262L31.1173 29.942L30.2621 26.1027L32.3234 27.1892L34.3498 26.5617L33.7223 24.5353L32.0373 23.6472L35.7739 22.3515L36.0768 21.0006L35.0026 20.1272L29.1857 22.1441L26.869 20.923L30.9079 19.5225L31.2289 18.1372L30.5854 17.6216L30.4253 16.9712L26.7541 15.9352L29.3436 14.1958L29.2664 14.4695L34.6932 16.0009L35.6305 15.0749L35.3156 13.7955L31.53 12.7272L33.4643 11.428L33.8731 9.3464L31.7915 8.93761L30.2104 9.99965L30.8423 6.09562L29.7967 5.18808L28.5182 5.71946L27.5345 11.797L25.3606 13.2573L26.0436 9.03732L24.9764 8.09757L24.5287 8.2874L24.4564 7.81597L23.2357 7.32012L20.2422 9.68454L20.3537 6.56702L20.5299 6.79016L24.9549 3.29508L24.7552 1.99268L23.5345 1.49683L20.4478 3.9349L20.5311 1.60624L19.0856 0.0535984ZM13.6508 26.6014L14.2005 22.0678L16.1158 23.3805L16.8455 23.8762L16.8462 24.0543L16.7522 23.9446L13.6508 26.6014ZM23.7355 27.5081L19.9615 24.0073L20.8843 23.3805L22.5601 22.2319L23.7355 27.5081ZM23.9531 19.3861L23.2676 19.0248L23.2685 18.5L23.2681 18.2767L24.4153 17.5061L24.3761 17.6452L26.9109 18.3605L23.9531 19.3861ZM23.4358 10.0822L22.6657 14.8405L20.8843 13.6195L20.1201 13.1005L20.1416 12.5L20.2311 12.6135L23.4358 10.0822ZM17.1384 12.5351L17.1241 12.9346L16.1158 13.6195L14.784 14.5323L14.2347 14.2142L14.3769 14.1885L13.3953 8.77481L17.1384 12.5351ZM12.8545 16.8817L13.7333 17.3906L13.7319 18.2314L12.3766 19.2223L12.4103 19.0818L8.60211 18.1691L12.8545 16.8817Z"/>
</mask>
<path fill-rule="evenodd" clip-rule="evenodd" d="M19.0856 0.0535984L17.533 1.49904L17.4649 3.40251L14.6748 0.599643L13.3264 0.913581L13.0063 2.26058L17.3497 6.62392L17.2562 9.24109L14.2403 6.21142L12.8531 6.52398L12.5342 7.90977L13.2025 8.5812L12.1274 8.20443L11.1161 9.04904L11.7967 12.8024L9.09712 11.2392L9.37692 11.1885L8.37086 5.64018L7.12739 5.20443L6.11608 6.04904L6.81788 9.91935L4.80142 8.75167L2.75168 9.29807L3.29807 11.3478L4.94634 12.3023L1.16117 13.4482L0.804688 14.786L1.84332 15.7015L7.73586 13.9176L10.0022 15.23L5.91069 16.4686L5.53477 17.84L6.26556 18.475L6.02708 18.7301L6.39273 19.996L10.1023 20.885L7.58398 22.7261L7.65026 22.4496L2.16681 21.1354L1.26705 22.0979L1.63271 23.3638L5.45779 24.2806L3.57673 25.6558L3.25111 27.752L5.34728 28.0776L6.8849 26.9535L6.40889 30.8796L7.48976 31.7448L8.74608 31.1629L9.48711 25.051L11.6012 23.5054L11.0867 27.7492L12.1905 28.6457L12.6302 28.4382L12.7212 28.9064L13.9607 29.3533L16.8577 26.8716L16.8704 29.9911L16.6854 29.7751L12.4031 33.4436L12.6544 34.737L13.8939 35.1839L16.8811 32.6249L16.8906 34.955L18.3967 36.4489L19.8906 34.9428L19.8828 33.0381L22.7823 35.7277L24.1172 35.3604L24.3834 34.0017L19.8697 29.8147L19.859 27.1959L22.9931 30.1031L24.3668 29.7356L24.6303 28.3382L23.9357 27.6939L25.025 28.0276L26.0019 27.1434L25.1725 23.4201L27.9321 24.8746L27.6546 24.9365L28.8806 30.4403L30.1405 30.8262L31.1173 29.942L30.2621 26.1027L32.3234 27.1892L34.3498 26.5617L33.7223 24.5353L32.0373 23.6472L35.7739 22.3515L36.0768 21.0006L35.0026 20.1272L29.1857 22.1441L26.869 20.923L30.9079 19.5225L31.2289 18.1372L30.5854 17.6216L30.4253 16.9712L26.7541 15.9352L29.3436 14.1958L29.2664 14.4695L34.6932 16.0009L35.6305 15.0749L35.3156 13.7955L31.53 12.7272L33.4643 11.428L33.8731 9.3464L31.7915 8.93761L30.2104 9.99965L30.8423 6.09562L29.7967 5.18808L28.5182 5.71946L27.5345 11.797L25.3606 13.2573L26.0436 9.03732L24.9764 8.09757L24.5287 8.2874L24.4564 7.81597L23.2357 7.32012L20.2422 9.68454L20.3537 6.56702L20.5299 6.79016L24.9549 3.29508L24.7552 1.99268L23.5345 1.49683L20.4478 3.9349L20.5311 1.60624L19.0856 0.0535984ZM13.6508 26.6014L14.2005 22.0678L16.1158 23.3805L16.8455 23.8762L16.8462 24.0543L16.7522 23.9446L13.6508 26.6014ZM23.7355 27.5081L19.9615 24.0073L20.8843 23.3805L22.5601 22.2319L23.7355 27.5081ZM23.9531 19.3861L23.2676 19.0248L23.2685 18.5L23.2681 18.2767L24.4153 17.5061L24.3761 17.6452L26.9109 18.3605L23.9531 19.3861ZM23.4358 10.0822L22.6657 14.8405L20.8843 13.6195L20.1201 13.1005L20.1416 12.5L20.2311 12.6135L23.4358 10.0822ZM17.1384 12.5351L17.1241 12.9346L16.1158 13.6195L14.784 14.5323L14.2347 14.2142L14.3769 14.1885L13.3953 8.77481L17.1384 12.5351ZM12.8545 16.8817L13.7333 17.3906L13.7319 18.2314L12.3766 19.2223L12.4103 19.0818L8.60211 18.1691L12.8545 16.8817Z" fill="#094361" stroke="#094361" stroke-width="2" mask="url(#path-1-inside-1_1_133)"/>
</svg>
