<svg width="41" height="38" viewBox="0 0 41 38" fill="none" xmlns="http://www.w3.org/2000/svg">
<path d="M9.98828 37H5.21875L5.21875 28.4336H9.98828V29.3125H6.21484V32.084L9.77148 32.084L9.77148 32.9512L6.21484 32.9512L6.21484 36.1211H9.98828V37ZM14.0254 37.1172C13.2129 37.1172 12.5684 36.8398 12.0918 36.2852C11.6191 35.7305 11.3828 34.9062 11.3828 33.8125C11.3828 32.707 11.625 31.873 12.1094 31.3105C12.5938 30.7441 13.2383 30.4609 14.043 30.4609C14.3828 30.4609 14.6797 30.5059 14.9336 30.5957C15.1875 30.6855 15.4062 30.8066 15.5898 30.959C15.7734 31.1074 15.9277 31.2773 16.0527 31.4687H16.123C16.1074 31.3477 16.0918 31.1816 16.0762 30.9707C16.0605 30.7598 16.0527 30.5879 16.0527 30.4551V27.8828H17.0254V37H16.2402L16.0938 36.0859H16.0527C15.9316 36.2773 15.7773 36.4512 15.5898 36.6074C15.4062 36.7637 15.1855 36.8887 14.9277 36.9824C14.6738 37.0723 14.373 37.1172 14.0254 37.1172ZM14.1777 36.3086C14.8652 36.3086 15.3516 36.1133 15.6367 35.7227C15.9219 35.332 16.0645 34.752 16.0645 33.9824V33.8066C16.0645 32.9902 15.9277 32.3633 15.6543 31.9258C15.3848 31.4883 14.8926 31.2695 14.1777 31.2695C13.5801 31.2695 13.1328 31.5 12.8359 31.9609C12.5391 32.418 12.3906 33.043 12.3906 33.8359C12.3906 34.625 12.5371 35.2344 12.8301 35.6641C13.127 36.0937 13.5762 36.3086 14.1777 36.3086ZM20.0605 30.5781V37H19.0879V30.5781H20.0605ZM19.5859 28.1758C19.7461 28.1758 19.8828 28.2285 19.9961 28.334C20.1133 28.4355 20.1719 28.5957 20.1719 28.8145C20.1719 29.0293 20.1133 29.1895 19.9961 29.2949C19.8828 29.4004 19.7461 29.4531 19.5859 29.4531C19.418 29.4531 19.2773 29.4004 19.1641 29.2949C19.0547 29.1895 19 29.0293 19 28.8145C19 28.5957 19.0547 28.4355 19.1641 28.334C19.2773 28.2285 19.418 28.1758 19.5859 28.1758ZM24.1973 36.3203C24.3574 36.3203 24.5215 36.3066 24.6895 36.2793C24.8574 36.252 24.9941 36.2187 25.0996 36.1797V36.9355C24.9863 36.9863 24.8281 37.0293 24.625 37.0645C24.4258 37.0996 24.2305 37.1172 24.0391 37.1172C23.6992 37.1172 23.3906 37.0586 23.1133 36.9414C22.8359 36.8203 22.6133 36.6172 22.4453 36.332C22.2812 36.0469 22.1992 35.6523 22.1992 35.1484V31.3398L21.2852 31.3398V30.8652L22.2051 30.4844L22.5918 29.0898H23.1777V30.5781H25.0586V31.3398H23.1777V35.1191C23.1777 35.5215 23.2695 35.8223 23.4531 36.0215C23.6406 36.2207 23.8887 36.3203 24.1973 36.3203ZM28.8027 30.4727C29.5684 30.4727 30.1367 30.6445 30.5078 30.9883C30.8789 31.332 31.0645 31.8809 31.0645 32.6348V37H30.3555L30.168 36.0508H30.1211C29.9414 36.2852 29.7539 36.4824 29.5586 36.6426C29.3633 36.7988 29.1367 36.918 28.8789 37C28.625 37.0781 28.3125 37.1172 27.9414 37.1172C27.5508 37.1172 27.2031 37.0488 26.8984 36.9121C26.5977 36.7754 26.3594 36.5684 26.1836 36.291C26.0117 36.0137 25.9258 35.6621 25.9258 35.2363C25.9258 34.5957 26.1797 34.1035 26.6875 33.7598C27.1953 33.416 27.9688 33.2285 29.0078 33.1973L30.1152 33.1504V32.7578C30.1152 32.2031 29.9961 31.8145 29.7578 31.5918C29.5195 31.3691 29.1836 31.2578 28.75 31.2578C28.4141 31.2578 28.0938 31.3066 27.7891 31.4043C27.4844 31.502 27.1953 31.6172 26.9219 31.75L26.623 31.0117C26.9121 30.8633 27.2441 30.7363 27.6191 30.6309C27.9941 30.5254 28.3887 30.4727 28.8027 30.4727ZM30.1035 33.8359L29.125 33.877C28.3242 33.9082 27.7598 34.0391 27.4316 34.2695C27.1035 34.5 26.9395 34.8262 26.9395 35.248C26.9395 35.6152 27.0508 35.8867 27.2734 36.0625C27.4961 36.2383 27.791 36.3262 28.1582 36.3262C28.7285 36.3262 29.1953 36.168 29.5586 35.8516C29.9219 35.5352 30.1035 35.0605 30.1035 34.4277V33.8359ZM35.9863 30.4609C36.1152 30.4609 36.25 30.4687 36.3906 30.4844C36.5312 30.4961 36.6562 30.5137 36.7656 30.5371L36.6426 31.4395C36.5371 31.4121 36.4199 31.3906 36.291 31.375C36.1621 31.3594 36.041 31.3516 35.9277 31.3516C35.6699 31.3516 35.4258 31.4043 35.1953 31.5098C34.9688 31.6113 34.7695 31.7598 34.5977 31.9551C34.4258 32.1465 34.291 32.3789 34.1934 32.6523C34.0957 32.9219 34.0469 33.2227 34.0469 33.5547V37H33.0684V30.5781H33.877L33.9824 31.7617H34.0234C34.1562 31.5234 34.3164 31.3066 34.5039 31.1113C34.6914 30.9121 34.9082 30.7539 35.1543 30.6367C35.4043 30.5195 35.6816 30.4609 35.9863 30.4609Z" fill="#094361"/>
<path d="M11 14.25V18H14.75L25.81 6.94L22.06 3.19L11 14.25ZM13.92 16H13V15.08L22.06 6.02L22.98 6.94L13.92 16ZM28.71 2.63L26.37 0.29C26.17 0.09 25.92 0 25.66 0C25.4 0 25.15 0.1 24.96 0.29L23.13 2.12L26.88 5.87L28.71 4.04C29.1 3.65 29.1 3.02 28.71 2.63Z" fill="#094361"/>
</svg>
