<svg width="48" height="49" xmlns="http://www.w3.org/2000/svg" xmlns:xlink="http://www.w3.org/1999/xlink" xml:space="preserve" overflow="hidden"><g transform="translate(-379 -361)"><path d="M42.9353 21.7323C44.6128 20.382 44.8778 17.9275 43.5274 16.25 42.8288 15.3824 41.7926 14.8549 40.68 14.8007 42.6531 13.9735 43.7519 14.5787 43.768 14.5883L44.028 14.161 44.2937 13.7372C43.4375 13.312 42.4544 13.2177 41.533 13.4726 40.785 12.4776 39.7923 11.6931 38.6513 11.1954 39.1253 10.4451 39.3942 9.5835 39.4313 8.6967 39.6217 6.7289 37.8846 5.11585 37.6859 4.9384L37.104 4.4184 36.4583 4.85665C36.273 4.98916 36.1018 5.14045 35.9476 5.30805 34.1436 3.91255 31.396 3.8366 30.8257 3.8366L30.796 3.8366 30.0319 3.84515 29.8393 4.58465C29.6481 5.4193 29.614 6.28225 29.739 7.12935 27.8829 7.40255 26.1723 8.2915 24.882 9.6535L24.5847 9.9863 24.6338 10.4299C24.6534 10.5915 24.6835 10.7517 24.7238 10.9094 22.7782 11.7792 21.9009 14.0575 22.7607 16.0075 21.5322 16.1455 20.4445 16.8643 19.8356 17.9401 19.4307 17.5657 19.0074 17.1948 18.5639 16.8093 18.198 16.4914 17.8178 16.1609 17.4347 15.8156 16.5669 14.863 15.8306 13.7983 15.2454 12.65 14.011 10.4996 12.7337 8.275 10.6321 8.92735 10.6132 8.9332 10.5906 8.94235 10.5709 8.94885 10.8283 8.0151 11.4121 7.2047 12.2161 6.66465 12.2879 6.61045 12.3511 6.5621 12.4041 6.51915L11.7741 5.7428C11.7287 5.7794 11.6737 5.8209 11.612 5.8678 11.02 6.2863 10.5155 6.8165 10.127 7.42855 9.93175 6.9323 9.6169 6.49205 9.21045 6.14685 8.5332 5.6547 7.7099 5.40495 6.87335 5.43785 6.6491 5.4362 6.42505 5.45105 6.203 5.4823 6.203 5.4823 6.2943 7.3182 7.488 8.28135 8.0754 8.72905 8.79095 8.97645 9.5294 8.98715 9.4981 9.1449 9.47165 9.30795 9.45375 9.47985 9.1434 9.4475 8.8297 9.4807 8.53295 9.57725 6.15255 10.3131 6.44725 12.8707 6.7324 15.3439 6.88375 16.6588 7.0405 18.0189 6.8124 19.09L6.60415 19.942C6.4872 20.4176 6.372 20.8866 6.2639 21.3485 3.58575 22.1171 2.0003 23.07 2.0003 24.1124L2.0003 24.4625C2.0003 31.2943 5.2346 37.38 11.0003 40.9624L11.0003 42.2285C10.9982 43.2279 11.7356 44.0746 12.7257 44.21 16.4645 44.6963 20.23 44.9475 24.0003 44.9622 27.7687 44.9475 31.5326 44.6963 35.2696 44.21 36.2598 44.0746 36.9972 43.2278 36.995 42.2284L36.995 40.9623C42.7607 37.3798 45.995 31.2941 45.995 24.4623L45.995 24.1123C45.995 23.2374 44.8784 22.425 42.9353 21.7323ZM8.11605 7.50285C7.8036 7.22615 7.5695 6.8721 7.4373 6.47625 7.8525 6.52025 8.2482 6.67525 8.5828 6.92495 8.899 7.20245 9.1349 7.5598 9.26585 7.9596 8.8476 7.9171 8.44945 7.7589 8.11605 7.50285ZM24.6731 26.9592C24.2151 26.5081 23.9249 25.9141 23.8508 25.2756 23.8479 25.2551 23.8467 25.2343 23.8437 25.2138 23.6921 23.7994 24.5929 22.4851 25.9668 22.1164 26.6573 22.8744 27.618 23.3309 28.6418 23.3874 28.2892 24.5341 28.484 25.7794 29.17 26.7636 29.183 26.7822 29.198 26.799 29.212 26.8165 27.7377 26.9 26.2181 26.9482 24.6731 26.9592ZM36.9324 17.07C36.4371 18.1521 36.4616 19.4008 36.9989 20.4626 36.687 20.5748 36.3909 20.7269 36.1181 20.9153 35.711 21.1996 35.3624 21.5596 35.0911 21.9755 35.0087 21.9826 34.9263 21.9939 34.8439 21.9939 33.2377 21.9984 31.9319 20.6999 31.9273 19.0938 31.9228 17.4875 33.2212 16.1817 34.8274 16.1772 35.6216 16.1749 36.382 16.4975 36.9324 17.07ZM32.605 15.8807C31.9045 16.3682 31.3845 17.0734 31.1257 17.8867 29.5245 17.7585 28.3304 16.3566 28.4585 14.7555 28.5867 13.1543 29.9885 11.9601 31.5897 12.0883 33.1908 12.2164 34.385 13.6183 34.2569 15.2194 34.2568 15.2202 34.2567 15.2209 34.2567 15.2217 33.6626 15.3108 33.0973 15.5364 32.605 15.8807ZM30.9417 18.875C30.9046 19.5313 31.0357 20.1863 31.3226 20.7778 30.8995 20.8897 30.4988 21.0738 30.1383 21.322 29.7312 21.6064 29.3825 21.9664 29.1112 22.3824 29.0287 22.3894 28.9462 22.4007 28.864 22.4007 27.2578 22.402 25.9547 21.1009 25.9534 19.4947 25.9526 18.5434 26.4171 17.6518 27.1973 17.1074 27.4078 16.9608 27.6374 16.8435 27.8797 16.7591 27.9611 16.9218 28.0536 17.0787 28.1565 17.2288 28.8037 18.1538 29.8192 18.754 30.9417 18.875ZM30.4821 26.735C29.2627 25.6924 29.1192 23.8587 30.1618 22.6392 30.6084 22.1169 31.2255 21.7698 31.9037 21.6596 32.596 22.4466 33.5752 22.9225 34.6217 22.9806 34.2812 24.0932 34.4554 25.2997 35.0967 26.2706 33.6405 26.464 32.0936 26.6203 30.4821 26.735ZM36.24 26.1085C36.1418 26.0076 36.0516 25.8993 35.97 25.7846 35.0492 24.4768 35.3629 22.6702 36.6707 21.7494 36.9483 21.5539 37.2581 21.4088 37.5859 21.3207 38.3274 22.1381 39.3794 22.6045 40.4829 22.605 40.5955 22.605 40.7057 22.5891 40.8168 22.5796 41.2934 23.3432 41.3882 24.2848 41.0737 25.1282 39.4817 25.5435 37.868 25.8708 36.24 26.1085ZM41.8734 22.4379C43.5451 22.9569 44.3793 23.4529 44.7453 23.7765 43.9266 24.1951 43.0718 24.539 42.1913 24.8041 42.3356 24.0016 42.2244 23.174 41.8735 22.4379ZM42.8652 17.0326C43.784 18.3497 43.4612 20.1623 42.1441 21.0811 40.827 21.9998 39.0144 21.677 38.0956 20.3599 37.1768 19.0428 37.4996 17.2302 38.8167 16.3114 39.304 15.9715 39.8837 15.7891 40.4777 15.7885 41.4292 15.7877 42.3209 16.2523 42.8652 17.0326ZM40.5083 13.7816C39.93 14.0124 39.3764 14.3005 38.8555 14.6417 38.9663 13.8672 38.9118 13.078 38.6959 12.326 39.3861 12.6931 40.0009 13.1869 40.5084 13.7816ZM25.6275 10.32C25.6275 10.32 27.6199 8.08925 30.458 8.08925 30.6284 8.08925 30.8019 8.0973 30.978 8.11425 31.0105 8.11745 31.042 8.12355 31.0743 8.1272 30.6432 7.08535 30.5495 5.9345 30.8067 4.83665L30.8253 4.83665C31.0912 4.83665 34.1432 4.8701 35.6669 6.3899 35.8143 6.5375 35.947 6.69895 36.0634 6.87205 36.2849 6.4068 36.6123 5.99995 37.0193 5.6841 37.0193 5.6841 38.5826 7.0801 38.4355 8.60035 38.415 9.34335 38.1897 10.0662 37.7845 10.6895 37.7487 10.7352 37.7167 10.7837 37.6886 10.8344 36.58 10.5169 35.4222 10.4067 34.2737 10.5097 33.9983 10.5317 33.7929 10.7727 33.8149 11.048 33.8369 11.3234 34.0779 11.5288 34.3532 11.5068 35.4152 11.4083 36.4863 11.5173 37.5066 11.8276 37.4977 12.0261 37.5447 12.2233 37.6422 12.3965 37.9158 13.0857 37.9906 13.8379 37.8581 14.5676 37.7869 15.0999 37.5623 15.6 37.2117 16.0068 36.6464 15.5624 35.9687 15.2837 35.2542 15.2021 35.3065 14.3326 35.0642 13.4707 34.5661 12.7561 33.8341 11.7085 32.6367 11.0843 31.3588 11.0842L31.3588 11.0842C30.5774 11.0844 29.8144 11.3204 29.1692 11.7612 28.2768 10.8125 26.9653 10.3794 25.6835 10.61 25.6598 10.5143 25.6411 10.4176 25.6275 10.32ZM24.684 12.0726C25.8473 11.2589 27.4288 11.4074 28.4203 12.4235 27.6059 13.3526 27.2796 14.6125 27.5403 15.8202 26.7686 16.0907 26.1038 16.6015 25.6439 17.2778 24.0861 16.8901 23.1376 15.3131 23.5252 13.7554 23.6951 13.0728 24.1068 12.4749 24.6838 12.0728ZM21.5583 17.4963C22.0453 17.1553 22.6255 16.9726 23.22 16.9728 23.2697 16.9728 23.319 16.9789 23.3685 16.9816 23.8473 17.5455 24.4767 17.9617 25.1832 18.1813 25.1096 18.385 25.053 18.5945 25.0138 18.8076 24.8644 19.6418 24.9925 20.502 25.3785 21.2565 25.067 21.3694 24.7715 21.5222 24.4993 21.7111 23.9931 22.0637 23.5781 22.5317 23.2887 23.0765 23.0399 22.3935 22.7414 21.7295 22.3958 21.09 21.9093 20.202 21.2997 19.3873 20.585 18.67 20.798 18.1984 21.1341 17.7929 21.5583 17.4963ZM7.57545 20.1805 7.78765 19.3114C8.05265 18.0665 7.8865 16.6239 7.72585 15.2289 7.4241 12.6122 7.34795 10.9902 8.82865 10.5322 9.0545 10.4422 9.30505 10.4361 9.535 10.515 9.8257 10.6384 10.163 10.5345 10.3338 10.2689 10.4795 10.0734 10.6901 9.9363 10.9278 9.8822 12.1747 9.49935 13.0638 10.8582 14.3783 13.1472 15.0098 14.3856 15.8096 15.5306 16.755 16.5497 17.1525 16.9081 17.5373 17.2426 17.9076 17.5644 19.4357 18.8925 20.6426 19.9413 21.5155 21.5634 22.1652 22.7107 22.6148 23.9602 22.8451 25.2584 22.8524 25.3434 22.8627 25.4273 22.8755 25.5111 22.9375 25.9901 22.96 26.4734 22.9431 26.9561 16.5817 26.8848 10.6825 26.1751 6.65875 25.0555 6.8217 23.4069 7.12845 21.7757 7.57545 20.1805ZM5.67345 24.7612C4.83881 24.5037 4.02833 24.1735 3.2513 23.7745 4.08134 23.1657 5.02075 22.7222 6.01835 22.4684 5.8562 23.2248 5.741 23.9905 5.67345 24.7612ZM35.137 43.2189C31.4439 43.6988 27.7244 43.9471 24.0003 43.9623 20.2745 43.9473 16.5532 43.699 12.8583 43.2189 12.3653 43.149 11.9992 42.7264 12.0003 42.2284L12.0003 41.2034C15.988 41.691 20.0008 41.9444 24.0181 41.9622 28.0219 41.9627 32.0218 41.7152 35.995 41.2214L35.995 42.2284C35.9961 42.7264 35.63 43.149 35.137 43.2189ZM36.4673 40.1129 36.3857 40.1635C32.2848 40.6972 28.1536 40.964 24.0181 40.9623 19.8581 40.9449 15.7031 40.6713 11.5768 40.1432L11.5281 40.1129C6.19545 36.7994 3.1075 31.2216 3.0096 24.7761 6.89365 26.725 14.9536 27.9623 24.0003 27.9623 33.0426 27.9623 41.0994 26.726 44.9856 24.7789 44.8869 31.223 41.7991 36.8 36.4673 40.1129Z" fill="#ED7D31" transform="matrix(1 0 0 1.02083 379 361)"/></g></svg>