<svg width="98" height="94" viewBox="0 0 98 94" fill="none" xmlns="http://www.w3.org/2000/svg">
<path d="M70.3515 0C62.009 0 54.1996 3.79563 49 10.1552C43.8004 3.79542 35.9912 0 27.6485 0C12.4031 0 0 12.4635 0 27.7834C0 39.7796 7.11846 53.6551 21.1572 69.0244C31.9611 80.852 43.714 90.0098 47.0587 92.5349L48.9994 94L50.94 92.5352C54.2847 90.01 66.038 80.8524 76.8421 69.0248C90.8813 53.6555 98 39.7798 98 27.7834C98 12.4635 85.5969 0 70.3515 0ZM72.0819 64.6338C63.1954 74.3621 53.6346 82.2263 48.9994 85.8508C44.3643 82.2263 34.804 74.3619 25.9174 64.6336C13.1893 50.6992 6.46154 37.9566 6.46154 27.7834C6.46154 16.044 15.966 6.49307 27.6485 6.49307C35.3364 6.49307 42.4351 10.7036 46.1744 17.4817L49 22.6039L51.8256 17.4817C55.5647 10.7038 62.6634 6.49307 70.3515 6.49307C82.034 6.49307 91.5385 16.0437 91.5385 27.7834C91.5385 37.957 84.8105 50.6996 72.0819 64.6338Z" fill="#094361"/>
</svg>
