<svg width="71" height="54" viewBox="0 0 71 54" fill="none" xmlns="http://www.w3.org/2000/svg">
<path d="M19.4344 14.1547C17.2911 13.8087 11.6008 13.4966 6.18134 15.0423L5.90706 14.0807C11.5025 12.4847 17.3468 12.8047 19.5938 13.1675L19.4344 14.1547Z" fill="#094361"/>
<path d="M6.15887 22.5602C10.3037 21.3049 14.6046 21.899 16.208 22.346L16.4765 21.3827C14.7437 20.8996 10.2424 20.2786 5.86902 21.6031L6.15887 22.5602Z" fill="#094361"/>
<path d="M30.2719 31.9698C26.3967 30.9338 16.1027 29.5748 6.1541 32.4799L5.87379 31.52C16.0428 28.5505 26.5297 29.9342 30.5302 31.0037L30.2719 31.9698Z" fill="#094361"/>
<path d="M6.1235 35.6635C15.0038 33.6688 24.1711 34.5324 27.6216 35.2095L27.8141 34.2283C24.2659 33.5319 14.9535 32.6552 5.90436 34.6878L6.1235 35.6635Z" fill="#094361"/>
<path d="M22.6152 39.5959C19.9772 38.9083 12.948 38.0054 6.15852 39.9447L5.88387 38.9832C12.8891 36.9823 20.1065 37.9087 22.8674 38.6283L22.6152 39.5959Z" fill="#094361"/>
<path d="M40.1589 38.3583C44.3037 37.103 48.6046 37.6971 50.208 38.1441L50.4765 37.1808C48.7437 36.6978 44.2424 36.0768 39.869 37.4013L40.1589 38.3583Z" fill="#094361"/>
<path d="M39.1718 31.4975C49.1204 28.5923 59.4144 29.9513 63.2896 30.9873L63.5479 30.0213C59.5474 28.9517 49.0605 27.568 38.8915 30.5375L39.1718 31.4975Z" fill="#094361"/>
<path d="M60.6393 34.227C57.1888 33.5499 48.0215 32.6863 39.1412 34.681L38.9221 33.7053C47.9712 31.6727 57.2836 32.5494 60.8318 33.2458L60.6393 34.227Z" fill="#094361"/>
<path d="M48.101 16.7773C48.6533 16.7773 49.101 16.3296 49.101 15.7773C49.101 15.2251 48.6533 14.7773 48.101 14.7773C47.5487 14.7773 47.101 15.2251 47.101 15.7773C47.101 16.3296 47.5487 16.7773 48.101 16.7773Z" fill="#094361"/>
<path d="M52 20C52.5523 20 53 19.5523 53 19C53 18.4477 52.5523 18 52 18C51.4477 18 51 18.4477 51 19C51 19.5523 51.4477 20 52 20Z" fill="#094361"/>
<path fill-rule="evenodd" clip-rule="evenodd" d="M39 13.0357C39 11.8067 39.7581 10.7139 40.8585 10.1667C41.1265 10.0335 41.3769 9.90434 41.6182 9.77991C43.6758 8.71885 45.0698 8 51 8C56.1992 8 57.6756 8.7397 59.3936 9.60039L59.3946 9.60094L59.3955 9.60141C59.8086 9.80832 60.236 10.0224 60.7321 10.2346C62.0199 10.7856 62.9699 11.9935 62.9275 13.3935L62.6337 23.089C62.5695 25.2055 60.3401 26.7016 58.259 26.3105C54.9756 25.6933 51.6027 25.5262 51.0721 25.503C51.0222 25.5008 50.9804 25.5002 50.9304 25.5011C50.4202 25.5104 47.1895 25.5857 44.0743 26.052C41.7666 26.3974 39 24.5279 39 22.1945V13.0357ZM61.9279 13.3632L61.6341 23.0587C61.592 24.4474 60.0391 25.6276 58.4437 25.3277C55.0886 24.697 51.6585 24.5277 51.1158 24.504C51.0462 24.5009 50.9837 24.5 50.9123 24.5013C50.3918 24.5107 47.108 24.5868 43.9263 25.063C43.0757 25.1903 42.0671 24.9086 41.2616 24.3203C40.4552 23.7312 40 22.9504 40 22.1945V13.0357C40 12.2307 40.5015 11.4611 41.3038 11.0621C41.5999 10.9148 41.8671 10.7773 42.1171 10.6486C43.007 10.1903 43.6793 9.8441 44.6679 9.57131C45.9279 9.22365 47.7205 9 51 9C54.1732 9 55.85 9.28118 57.0176 9.65807C57.603 9.84701 58.0845 10.0676 58.5955 10.3199C58.7042 10.3736 58.816 10.4296 58.9313 10.4873C59.3484 10.6964 59.8111 10.9283 60.3388 11.154C61.335 11.5802 61.9553 12.461 61.9279 13.3632Z" fill="#094361"/>
<path fill-rule="evenodd" clip-rule="evenodd" d="M67.501 5.63457C64.232 3.74199 58.674 1.48942 52.5316 0.830701C46.6004 0.194621 40.0276 1.03809 34.4789 5.24481C32.8837 4.13829 30.6033 2.98942 27.7868 2.14624C21.2406 0.18651 11.7269 -0.142568 1.02589 5.61953C0.701996 5.79394 0.5 6.13212 0.5 6.5V49.5C0.5 49.8 0.634705 50.0842 0.866959 50.2741C1.04715 50.4215 1.27127 50.5 1.5 50.5V52C1.5 52.2942 1.62959 52.5735 1.85425 52.7636C2.07892 52.9536 2.37587 53.035 2.66602 52.9861L2.68938 52.9822L2.76163 52.9703L2.87192 52.9522L3.0446 52.9244C3.2921 52.8847 3.65358 52.8278 4.10739 52.7593C5.01524 52.6224 6.29138 52.4394 7.76279 52.2553C10.7145 51.886 14.4175 51.517 17.5055 51.5C20.7182 51.4823 24.8422 51.9722 28.1971 52.4753C29.8672 52.7258 31.3334 52.9775 32.3818 53.1665C32.9058 53.261 33.325 53.3398 33.6126 53.3948C33.7564 53.4223 33.8673 53.4438 33.9419 53.4585L34.0262 53.4751L34.0533 53.4805C34.1788 53.5056 34.3081 53.5065 34.4338 53.483C46.5623 51.2149 56.0132 50.85 69.3058 53.481C69.5994 53.5391 69.9035 53.4627 70.1348 53.2727C70.366 53.0828 70.5 52.7992 70.5 52.5V8C70.5 7.59109 70.2511 7.22339 69.8714 7.07152L67.983 6.31616C67.9299 6.03256 67.7559 5.78213 67.501 5.63457ZM68 8.47703V49.5C68 49.7992 67.866 50.0828 67.6348 50.2727C67.4035 50.4627 67.0994 50.5391 66.8058 50.481C53.5145 47.8503 46.5638 48.2146 34.4338 50.483C34.3081 50.5065 34.179 50.5056 34.0535 50.4805L34.0522 50.4802L34.0262 50.4751L33.9419 50.4585L33.8406 50.4387C33.7777 50.4265 33.7014 50.4118 33.6126 50.3948C33.325 50.3398 32.9058 50.261 32.3818 50.1665C31.3334 49.9775 29.8672 49.7258 28.1971 49.4753C24.8422 48.9722 20.7182 48.4823 17.5055 48.5C14.4346 48.5169 10.4952 49.007 7.29112 49.5013C5.8022 49.731 4.48317 49.9598 3.5 50.1385V50.8287L3.62239 50.81L3.8091 50.7817C4.72986 50.6428 6.02304 50.4573 7.51453 50.2708C10.4886 49.8987 14.2856 49.5177 17.4945 49.5C20.8695 49.4814 25.1204 49.9915 28.4937 50.4974C30.1876 50.7515 31.6737 51.0066 32.7366 51.1983C33.2683 51.2941 33.6945 51.3742 33.9883 51.4304L34.0992 51.4517L34.2551 51.4818C46.1424 49.2731 55.609 48.8686 68.5 51.2887V8.67703L68 8.47703ZM28.5 4.48333C30.6326 5.24269 32.3273 6.16246 33.5 7.00161V24.2768L31.4961 23.1318C31.1887 22.9561 30.8113 22.9561 30.5039 23.1318L28.5 24.2768V4.48333ZM2.5 7.10188C12.0889 2.10561 20.5509 2.25272 26.5 3.85924V20.7971C24.2982 20.5037 21.0497 20.4379 17.869 21.4013L18.1589 22.3583C21.2456 21.4235 24.4187 21.5143 26.5 21.8062V26C26.5 26.3565 26.6898 26.686 26.9981 26.8649C27.3064 27.0438 27.6866 27.0451 27.9961 26.8682L31 25.1518L33.4938 26.5768L33.2628 48.2942C33.1015 48.2645 32.9258 48.2324 32.7366 48.1983C31.6737 48.0066 30.1876 47.7515 28.4937 47.4974C25.1204 46.9915 20.8695 46.4814 17.4945 46.5C14.2685 46.5178 10.2079 47.0277 6.98619 47.5247C5.36842 47.7743 3.94923 48.0227 2.93419 48.2088C2.77992 48.2371 2.63495 48.2639 2.5 48.2891V7.10188ZM35.4999 26.0106L35.2629 48.2965C46.5278 46.2528 53.6156 45.9378 66 48.2875V7.08421C62.8795 5.37083 57.838 3.41124 52.3184 2.8193C46.6406 2.2104 40.556 3.05547 35.5 6.9822V26L35.4999 26.0106Z" fill="#094361"/>
<path d="M52.6942 16C53.2465 16 53.6942 15.5523 53.6942 15C53.6942 14.4477 53.2465 14 52.6942 14C52.1419 14 51.6942 14.4477 51.6942 15C51.6942 15.5523 52.1419 16 52.6942 16Z" fill="#094361"/>
<path d="M44 15C44.7547 14.1046 46.9102 12.4069 48.5 12C50.0628 11.6 52.2412 11.7676 53.3781 11.7436M52.5316 0.830701C58.674 1.48942 64.232 3.74199 67.501 5.63457C67.7559 5.78213 67.9299 6.03256 67.983 6.31616L69.8714 7.07152C70.2511 7.22339 70.5 7.59109 70.5 8V52.5C70.5 52.7992 70.366 53.0828 70.1348 53.2727C69.9035 53.4627 69.5994 53.5391 69.3058 53.481C56.0132 50.85 46.5623 51.2149 34.4338 53.483C34.3081 53.5065 34.1788 53.5056 34.0533 53.4805L34.0262 53.4751L33.9419 53.4585C33.8673 53.4438 33.7564 53.4223 33.6126 53.3948C33.325 53.3398 32.9058 53.261 32.3818 53.1665C31.3334 52.9775 29.8672 52.7258 28.1971 52.4753C24.8422 51.9722 20.7182 51.4823 17.5055 51.5C14.4175 51.517 10.7145 51.886 7.76279 52.2553C6.29138 52.4394 5.01524 52.6224 4.10739 52.7593C3.65358 52.8278 3.2921 52.8847 3.0446 52.9244L2.87192 52.9522L2.76163 52.9703L2.68938 52.9822L2.66602 52.9861C2.37587 53.035 2.07892 52.9536 1.85425 52.7636C1.62959 52.5735 1.5 52.2942 1.5 52V50.5C1.27127 50.5 1.04715 50.4215 0.866959 50.2741C0.634705 50.0842 0.5 49.8 0.5 49.5V6.5C0.5 6.13212 0.701996 5.79394 1.02589 5.61953C11.7269 -0.142568 21.2406 0.18651 27.7868 2.14624C30.6033 2.98942 32.8837 4.13829 34.4789 5.24481C40.0276 1.03809 46.6004 0.194621 52.5316 0.830701ZM68 49.5V8.47703L68.5 8.67703V51.2887C55.609 48.8686 46.1424 49.2731 34.2551 51.4818L34.0992 51.4517L33.9883 51.4304C33.6945 51.3742 33.2683 51.2941 32.7366 51.1983C31.6737 51.0066 30.1876 50.7515 28.4937 50.4974C25.1204 49.9915 20.8695 49.4814 17.4945 49.5C14.2856 49.5177 10.4886 49.8987 7.51453 50.2708C6.02304 50.4573 4.72986 50.6428 3.8091 50.7817L3.62239 50.81L3.5 50.8287V50.1385C4.48317 49.9598 5.8022 49.731 7.29112 49.5013C10.4952 49.007 14.4346 48.5169 17.5055 48.5C20.7182 48.4823 24.8422 48.9722 28.1971 49.4753C29.8672 49.7258 31.3334 49.9775 32.3818 50.1665C32.9058 50.261 33.325 50.3398 33.6126 50.3948C33.7014 50.4118 33.7777 50.4265 33.8406 50.4387L33.9419 50.4585L34.0262 50.4751L34.0522 50.4802L34.0535 50.4805C34.179 50.5056 34.3081 50.5065 34.4338 50.483C46.5638 48.2146 53.5145 47.8503 66.8058 50.481C67.0994 50.5391 67.4035 50.4627 67.6348 50.2727C67.866 50.0828 68 49.7992 68 49.5ZM33.5 7.00161C32.3273 6.16246 30.6326 5.24269 28.5 4.48333V24.2768L30.5039 23.1318C30.8113 22.9561 31.1887 22.9561 31.4961 23.1318L33.5 24.2768V7.00161ZM26.5 3.85924C20.5509 2.25272 12.0889 2.10561 2.5 7.10188V48.2891C2.63495 48.2639 2.77992 48.2371 2.93419 48.2088C3.94923 48.0227 5.36842 47.7743 6.98619 47.5247C10.2079 47.0277 14.2685 46.5178 17.4945 46.5C20.8695 46.4814 25.1204 46.9915 28.4937 47.4974C30.1876 47.7515 31.6737 48.0066 32.7366 48.1983C32.9258 48.2324 33.1015 48.2645 33.2628 48.2942L33.4938 26.5768L31 25.1518L27.9961 26.8682C27.6866 27.0451 27.3064 27.0438 26.9981 26.8649C26.6898 26.686 26.5 26.3565 26.5 26V21.8062C24.4187 21.5143 21.2456 21.4235 18.1589 22.3583L17.869 21.4013C21.0497 20.4379 24.2982 20.5037 26.5 20.7971V3.85924ZM35.2629 48.2965L35.4999 26.0106L35.5 26V6.9822C40.556 3.05547 46.6406 2.2104 52.3184 2.8193C57.838 3.41124 62.8795 5.37083 66 7.08421V48.2875C53.6156 45.9378 46.5278 46.2528 35.2629 48.2965ZM6.18134 15.0423C11.6008 13.4966 17.2911 13.8087 19.4344 14.1547L19.5938 13.1675C17.3468 12.8047 11.5025 12.4847 5.90706 14.0807L6.18134 15.0423ZM16.208 22.346C14.6046 21.899 10.3037 21.3049 6.15887 22.5602L5.86902 21.6031C10.2424 20.2786 14.7437 20.8996 16.4765 21.3827L16.208 22.346ZM50.208 38.1441C48.6046 37.6971 44.3037 37.103 40.1589 38.3583L39.869 37.4013C44.2424 36.0768 48.7437 36.6978 50.4765 37.1808L50.208 38.1441ZM6.1541 32.4799C16.1027 29.5748 26.3967 30.9338 30.2719 31.9698L30.5302 31.0037C26.5297 29.9342 16.0428 28.5505 5.87379 31.52L6.1541 32.4799ZM27.6216 35.2095C24.1711 34.5324 15.0038 33.6688 6.1235 35.6635L5.90436 34.6878C14.9535 32.6552 24.2659 33.5319 27.8141 34.2283L27.6216 35.2095ZM6.15852 39.9447C12.948 38.0054 19.9772 38.9083 22.6152 39.5959L22.8674 38.6283C20.1065 37.9087 12.8891 36.9823 5.88387 38.9832L6.15852 39.9447ZM63.2896 30.9873C59.4144 29.9513 49.1204 28.5923 39.1718 31.4975L38.8915 30.5375C49.0605 27.568 59.5474 28.9517 63.5479 30.0213L63.2896 30.9873ZM39.1412 34.681C48.0215 32.6863 57.1888 33.5499 60.6393 34.227L60.8318 33.2458C57.2836 32.5494 47.9712 31.6727 38.9221 33.7053L39.1412 34.681ZM61.6341 23.0587L61.9279 13.3632C61.9553 12.461 61.335 11.5802 60.3388 11.154C59.8111 10.9283 59.3484 10.6964 58.9313 10.4873C58.816 10.4296 58.7042 10.3736 58.5955 10.3199C58.0845 10.0676 57.603 9.84701 57.0176 9.65807C55.85 9.28118 54.1732 9 51 9C47.7205 9 45.9279 9.22365 44.6679 9.57131C43.6793 9.8441 43.007 10.1903 42.1171 10.6486C41.8671 10.7773 41.5999 10.9148 41.3038 11.0621C40.5015 11.4611 40 12.2307 40 13.0357V22.1945C40 22.9504 40.4552 23.7312 41.2616 24.3203C42.0671 24.9086 43.0757 25.1903 43.9263 25.063C47.108 24.5868 50.3918 24.5107 50.9123 24.5013C50.9837 24.5 51.0462 24.5009 51.1158 24.504C51.6585 24.5277 55.0886 24.697 58.4437 25.3277C60.0391 25.6276 61.592 24.4474 61.6341 23.0587ZM40.8585 10.1667C39.7581 10.7139 39 11.8067 39 13.0357V22.1945C39 24.5279 41.7666 26.3974 44.0743 26.052C47.1895 25.5857 50.4202 25.5104 50.9304 25.5011C50.9804 25.5002 51.0222 25.5008 51.0721 25.503C51.6027 25.5262 54.9756 25.6933 58.259 26.3105C60.3401 26.7016 62.5695 25.2055 62.6337 23.089L62.9275 13.3935C62.9699 11.9935 62.0199 10.7856 60.7321 10.2346C60.236 10.0224 59.8086 9.80832 59.3955 9.60141L59.3946 9.60094L59.3936 9.60039C57.6756 8.7397 56.1992 8 51 8C45.0698 8 43.6758 8.71885 41.6182 9.77991C41.3769 9.90434 41.1265 10.0335 40.8585 10.1667ZM53 11C51.8004 11 49.9076 11.1533 48.101 11.6156C46.3241 12.0704 44.4939 12.8577 43.584 14.2226C43.472 14.3906 43.472 14.6094 43.584 14.7773L44.584 16.2773C44.608 16.3134 44.6367 16.3462 44.6692 16.3749L53.1692 23.8749C53.3132 24.002 53.5172 24.0353 53.6942 23.9607C53.8712 23.8861 53.9898 23.7168 53.9994 23.525L54.4994 13.525C54.5037 13.439 54.4857 13.3534 54.4472 13.2764L53.4472 11.2764C53.3625 11.107 53.1894 11 53 11ZM49.101 15.7773C49.101 16.3296 48.6533 16.7773 48.101 16.7773C47.5487 16.7773 47.101 16.3296 47.101 15.7773C47.101 15.2251 47.5487 14.7773 48.101 14.7773C48.6533 14.7773 49.101 15.2251 49.101 15.7773ZM53 19C53 19.5523 52.5523 20 52 20C51.4477 20 51 19.5523 51 19C51 18.4477 51.4477 18 52 18C52.5523 18 53 18.4477 53 19ZM53.6942 15C53.6942 15.5523 53.2465 16 52.6942 16C52.1419 16 51.6942 15.5523 51.6942 15C51.6942 14.4477 52.1419 14 52.6942 14C53.2465 14 53.6942 14.4477 53.6942 15Z" stroke="#094361"/>
</svg>
