<svg width="25" height="46" viewBox="0 0 25 46" fill="none" xmlns="http://www.w3.org/2000/svg">
<mask id="path-1-inside-1_1_55" fill="white">
<path d="M14.5 17.5C14.5 17.2239 14.7239 17 15 17H17C17.2761 17 17.5 17.2239 17.5 17.5C17.5 17.7761 17.2761 18 17 18H15C14.7239 18 14.5 17.7761 14.5 17.5Z"/>
<path d="M19 17.5C19 17.2239 19.2239 17 19.5 17H23V21C23 21.2761 22.7761 21.5 22.5 21.5C22.2239 21.5 22 21.2761 22 21V18H19.5C19.2239 18 19 17.7761 19 17.5Z"/>
<path d="M22.5 38.5C22.7761 38.5 23 38.7239 23 39V42H17.5C17.2239 42 17 41.7761 17 41.5C17 41.2239 17.2239 41 17.5 41H22V39C22 38.7239 22.2239 38.5 22.5 38.5Z"/>
<path d="M12 41.5C12 41.2239 12.2239 41 12.5 41H15C15.2761 41 15.5 41.2239 15.5 41.5C15.5 41.7761 15.2761 42 15 42H12.5C12.2239 42 12 41.7761 12 41.5Z"/>
<path fill-rule="evenodd" clip-rule="evenodd" d="M15.9638 21.7936C15.8872 21.6245 15.7232 21.5118 15.5379 21.5009C15.3526 21.4899 15.1765 21.5825 15.0805 21.7414L13.2431 24.7812H11.0459C10.7923 24.7812 10.5789 24.9711 10.5493 25.2229C10.4622 25.9642 10.4555 27.1094 10.8258 28.094C11.0134 28.5926 11.3067 29.0739 11.7586 29.4309C12.106 29.7054 12.5275 29.8907 13.0251 29.9644V37C13.0251 37.2761 13.2489 37.5 13.5251 37.5H20.4668C20.7429 37.5 20.9668 37.2761 20.9668 37V29.8928C21.5004 29.7234 22.1182 29.3738 22.6125 28.7755C23.2576 27.9946 23.6558 26.835 23.4416 25.2157C23.4088 24.9671 23.1968 24.7812 22.946 24.7812H20.7488L18.9113 21.7414C18.8153 21.5825 18.6392 21.4899 18.4539 21.5009C18.2687 21.5118 18.1047 21.6245 18.028 21.7936L16.9959 24.0703L15.9638 21.7936ZM12.3785 28.6462C12.639 28.8521 12.9947 28.9953 13.5 28.9999V25.7812H11.5069C11.479 26.3912 11.5305 27.127 11.7618 27.742C11.9048 28.1222 12.1074 28.432 12.3785 28.6462ZM13.9771 25.5L15.4451 23.0713L16.5405 25.4877L16.5463 25.5H13.9771ZM17.4455 25.5L17.4513 25.4877L18.5468 23.0713L20.0148 25.5H17.4455ZM20.5 26V25.7812H22.4917C22.496 25.8558 22.4986 25.9287 22.4996 26H20.5ZM14.5 26.5V28.51C14.5323 28.5034 14.5658 28.5 14.6 28.5H15.7143C15.9904 28.5 16.2143 28.7239 16.2143 29C16.2143 29.2761 15.9904 29.5 15.7143 29.5H14.6C14.5658 29.5 14.5323 29.4966 14.5 29.49V33H19.5V29.49C19.4677 29.4966 19.4342 29.5 19.4 29.5H18.2C17.9239 29.5 17.7 29.2761 17.7 29C17.7 28.7239 17.9239 28.5 18.2 28.5H19.4C19.4342 28.5 19.4677 28.5034 19.5 28.51V26.5H14.5Z"/>
<path fill-rule="evenodd" clip-rule="evenodd" d="M5 0.5H21V5.38823L25 13.8882V45.5H8.36151L0.5 40.7831V10.3081L5 5.30813V0.5ZM5.18855 6.59348L1.81089 10.3464L7.70015 13.2911L5.18855 6.59348ZM7.50496 14.3115L1.5 11.309V40.2169L7.98555 44.1082L7.50496 14.3115ZM8.992 44.5L8.50813 14.5H24V44.5H8.992ZM23.7121 13.5H8.8465L6.034 6H20.1827L23.7121 13.5ZM20 5V1.5H6V5H20Z"/>
</mask>
<path d="M14.5 17.5C14.5 17.2239 14.7239 17 15 17H17C17.2761 17 17.5 17.2239 17.5 17.5C17.5 17.7761 17.2761 18 17 18H15C14.7239 18 14.5 17.7761 14.5 17.5Z" fill="#0C608C"/>
<path d="M19 17.5C19 17.2239 19.2239 17 19.5 17H23V21C23 21.2761 22.7761 21.5 22.5 21.5C22.2239 21.5 22 21.2761 22 21V18H19.5C19.2239 18 19 17.7761 19 17.5Z" fill="#0C608C"/>
<path d="M22.5 38.5C22.7761 38.5 23 38.7239 23 39V42H17.5C17.2239 42 17 41.7761 17 41.5C17 41.2239 17.2239 41 17.5 41H22V39C22 38.7239 22.2239 38.5 22.5 38.5Z" fill="#0C608C"/>
<path d="M12 41.5C12 41.2239 12.2239 41 12.5 41H15C15.2761 41 15.5 41.2239 15.5 41.5C15.5 41.7761 15.2761 42 15 42H12.5C12.2239 42 12 41.7761 12 41.5Z" fill="#0C608C"/>
<path fill-rule="evenodd" clip-rule="evenodd" d="M15.9638 21.7936C15.8872 21.6245 15.7232 21.5118 15.5379 21.5009C15.3526 21.4899 15.1765 21.5825 15.0805 21.7414L13.2431 24.7812H11.0459C10.7923 24.7812 10.5789 24.9711 10.5493 25.2229C10.4622 25.9642 10.4555 27.1094 10.8258 28.094C11.0134 28.5926 11.3067 29.0739 11.7586 29.4309C12.106 29.7054 12.5275 29.8907 13.0251 29.9644V37C13.0251 37.2761 13.2489 37.5 13.5251 37.5H20.4668C20.7429 37.5 20.9668 37.2761 20.9668 37V29.8928C21.5004 29.7234 22.1182 29.3738 22.6125 28.7755C23.2576 27.9946 23.6558 26.835 23.4416 25.2157C23.4088 24.9671 23.1968 24.7812 22.946 24.7812H20.7488L18.9113 21.7414C18.8153 21.5825 18.6392 21.4899 18.4539 21.5009C18.2687 21.5118 18.1047 21.6245 18.028 21.7936L16.9959 24.0703L15.9638 21.7936ZM12.3785 28.6462C12.639 28.8521 12.9947 28.9953 13.5 28.9999V25.7812H11.5069C11.479 26.3912 11.5305 27.127 11.7618 27.742C11.9048 28.1222 12.1074 28.432 12.3785 28.6462ZM13.9771 25.5L15.4451 23.0713L16.5405 25.4877L16.5463 25.5H13.9771ZM17.4455 25.5L17.4513 25.4877L18.5468 23.0713L20.0148 25.5H17.4455ZM20.5 26V25.7812H22.4917C22.496 25.8558 22.4986 25.9287 22.4996 26H20.5ZM14.5 26.5V28.51C14.5323 28.5034 14.5658 28.5 14.6 28.5H15.7143C15.9904 28.5 16.2143 28.7239 16.2143 29C16.2143 29.2761 15.9904 29.5 15.7143 29.5H14.6C14.5658 29.5 14.5323 29.4966 14.5 29.49V33H19.5V29.49C19.4677 29.4966 19.4342 29.5 19.4 29.5H18.2C17.9239 29.5 17.7 29.2761 17.7 29C17.7 28.7239 17.9239 28.5 18.2 28.5H19.4C19.4342 28.5 19.4677 28.5034 19.5 28.51V26.5H14.5Z" fill="#0C608C"/>
<path fill-rule="evenodd" clip-rule="evenodd" d="M5 0.5H21V5.38823L25 13.8882V45.5H8.36151L0.5 40.7831V10.3081L5 5.30813V0.5ZM5.18855 6.59348L1.81089 10.3464L7.70015 13.2911L5.18855 6.59348ZM7.50496 14.3115L1.5 11.309V40.2169L7.98555 44.1082L7.50496 14.3115ZM8.992 44.5L8.50813 14.5H24V44.5H8.992ZM23.7121 13.5H8.8465L6.034 6H20.1827L23.7121 13.5ZM20 5V1.5H6V5H20Z" fill="#0C608C"/>
<path d="M14.5 17.5C14.5 17.2239 14.7239 17 15 17H17C17.2761 17 17.5 17.2239 17.5 17.5C17.5 17.7761 17.2761 18 17 18H15C14.7239 18 14.5 17.7761 14.5 17.5Z" stroke="#094361" stroke-width="2" mask="url(#path-1-inside-1_1_55)"/>
<path d="M19 17.5C19 17.2239 19.2239 17 19.5 17H23V21C23 21.2761 22.7761 21.5 22.5 21.5C22.2239 21.5 22 21.2761 22 21V18H19.5C19.2239 18 19 17.7761 19 17.5Z" stroke="#094361" stroke-width="2" mask="url(#path-1-inside-1_1_55)"/>
<path d="M22.5 38.5C22.7761 38.5 23 38.7239 23 39V42H17.5C17.2239 42 17 41.7761 17 41.5C17 41.2239 17.2239 41 17.5 41H22V39C22 38.7239 22.2239 38.5 22.5 38.5Z" stroke="#094361" stroke-width="2" mask="url(#path-1-inside-1_1_55)"/>
<path d="M12 41.5C12 41.2239 12.2239 41 12.5 41H15C15.2761 41 15.5 41.2239 15.5 41.5C15.5 41.7761 15.2761 42 15 42H12.5C12.2239 42 12 41.7761 12 41.5Z" stroke="#094361" stroke-width="2" mask="url(#path-1-inside-1_1_55)"/>
<path fill-rule="evenodd" clip-rule="evenodd" d="M15.9638 21.7936C15.8872 21.6245 15.7232 21.5118 15.5379 21.5009C15.3526 21.4899 15.1765 21.5825 15.0805 21.7414L13.2431 24.7812H11.0459C10.7923 24.7812 10.5789 24.9711 10.5493 25.2229C10.4622 25.9642 10.4555 27.1094 10.8258 28.094C11.0134 28.5926 11.3067 29.0739 11.7586 29.4309C12.106 29.7054 12.5275 29.8907 13.0251 29.9644V37C13.0251 37.2761 13.2489 37.5 13.5251 37.5H20.4668C20.7429 37.5 20.9668 37.2761 20.9668 37V29.8928C21.5004 29.7234 22.1182 29.3738 22.6125 28.7755C23.2576 27.9946 23.6558 26.835 23.4416 25.2157C23.4088 24.9671 23.1968 24.7812 22.946 24.7812H20.7488L18.9113 21.7414C18.8153 21.5825 18.6392 21.4899 18.4539 21.5009C18.2687 21.5118 18.1047 21.6245 18.028 21.7936L16.9959 24.0703L15.9638 21.7936ZM12.3785 28.6462C12.639 28.8521 12.9947 28.9953 13.5 28.9999V25.7812H11.5069C11.479 26.3912 11.5305 27.127 11.7618 27.742C11.9048 28.1222 12.1074 28.432 12.3785 28.6462ZM13.9771 25.5L15.4451 23.0713L16.5405 25.4877L16.5463 25.5H13.9771ZM17.4455 25.5L17.4513 25.4877L18.5468 23.0713L20.0148 25.5H17.4455ZM20.5 26V25.7812H22.4917C22.496 25.8558 22.4986 25.9287 22.4996 26H20.5ZM14.5 26.5V28.51C14.5323 28.5034 14.5658 28.5 14.6 28.5H15.7143C15.9904 28.5 16.2143 28.7239 16.2143 29C16.2143 29.2761 15.9904 29.5 15.7143 29.5H14.6C14.5658 29.5 14.5323 29.4966 14.5 29.49V33H19.5V29.49C19.4677 29.4966 19.4342 29.5 19.4 29.5H18.2C17.9239 29.5 17.7 29.2761 17.7 29C17.7 28.7239 17.9239 28.5 18.2 28.5H19.4C19.4342 28.5 19.4677 28.5034 19.5 28.51V26.5H14.5Z" stroke="#094361" stroke-width="2" mask="url(#path-1-inside-1_1_55)"/>
<path fill-rule="evenodd" clip-rule="evenodd" d="M5 0.5H21V5.38823L25 13.8882V45.5H8.36151L0.5 40.7831V10.3081L5 5.30813V0.5ZM5.18855 6.59348L1.81089 10.3464L7.70015 13.2911L5.18855 6.59348ZM7.50496 14.3115L1.5 11.309V40.2169L7.98555 44.1082L7.50496 14.3115ZM8.992 44.5L8.50813 14.5H24V44.5H8.992ZM23.7121 13.5H8.8465L6.034 6H20.1827L23.7121 13.5ZM20 5V1.5H6V5H20Z" stroke="#094361" stroke-width="2" mask="url(#path-1-inside-1_1_55)"/>
</svg>
