<svg width="21" height="21" xmlns="http://www.w3.org/2000/svg" xmlns:xlink="http://www.w3.org/1999/xlink" xml:space="preserve" overflow="hidden"><g transform="translate(-705 -438)"><path d="M722.76 454.01C721.529 453.393 719.68 451.823 719.505 445.997 719.442 443.856 718.114 442.935 717.003 442.541 717.044 442.399 717.065 442.252 717.064 442.104 717.064 441.24 716.364 440.54 715.5 440.54 714.636 440.54 713.936 441.24 713.936 442.104 713.935 442.252 713.956 442.399 713.997 442.541 712.886 442.935 711.558 443.854 711.495 445.997 711.32 451.816 709.471 453.391 708.24 454.008 707.739 454.258 707.99 454.844 708.281 454.844L713.859 454.844C713.953 455.75 714.764 456.408 715.67 456.315 716.446 456.234 717.06 455.62 717.141 454.844L722.719 454.844C723.01 454.844 723.261 454.26 722.76 454.01ZM714.811 442.115C714.811 441.734 715.119 441.426 715.5 441.426 715.881 441.426 716.189 441.734 716.189 442.115 716.188 442.184 716.177 442.252 716.156 442.318 715.94 442.276 715.72 442.251 715.5 442.244L715.5 442.244C715.28 442.253 715.06 442.277 714.844 442.318 714.823 442.252 714.811 442.184 714.811 442.115Z" fill="#FFFFFF"/></g></svg>