<svg width="68" height="48" viewBox="0 0 68 48" fill="none" xmlns="http://www.w3.org/2000/svg">
<g clip-path="url(#clip0_2_2)">
<mask id="path-1-inside-1_2_2" fill="white">
<path d="M35.9051 0.571442C36.2185 0.571442 36.4724 0.827281 36.4724 1.14287C36.4724 1.54647 36.5067 1.75153 36.538 1.85834C36.5621 1.94063 36.5841 1.97013 36.6297 2.0269L36.6475 2.0487C36.715 2.13135 36.8345 2.27754 36.9173 2.5083C37.0025 2.74542 37.0397 3.03694 37.0397 3.42858C37.0397 3.86737 36.8738 4.22959 36.673 4.5217C36.484 4.79666 36.2404 5.04198 36.0387 5.24504L36.0227 5.26121C35.8019 5.48364 35.6281 5.66114 35.5029 5.84313C35.3846 6.0153 35.3378 6.15309 35.3378 6.28573C35.3378 6.85446 35.4041 7.01012 35.4944 7.15016C35.5581 7.24882 35.6451 7.35196 35.7994 7.53314C35.9472 7.70662 36.1346 7.92713 36.359 8.22858C36.7411 8.74172 36.9102 9.4666 36.8222 10.1454C36.7322 10.8411 36.3607 11.5524 35.5915 11.9397C35.2941 12.0895 34.9617 12.3228 34.768 12.5997C34.599 12.8414 34.5345 13.1039 34.7107 13.4588C34.8508 13.741 34.7372 14.0842 34.457 14.2254C34.1768 14.3665 33.8359 14.2521 33.6958 13.9698C33.3047 13.1818 33.4696 12.4718 33.8405 11.9414C34.1869 11.4463 34.7055 11.1082 35.0841 10.9175C35.4497 10.7334 35.6455 10.3971 35.6972 9.99753C35.7512 9.58105 35.6366 9.16308 35.4513 8.9143C35.2503 8.64432 35.0831 8.44727 34.9383 8.27736L34.9179 8.25341C34.7862 8.09883 34.6512 7.9404 34.5431 7.77303C34.2789 7.36366 34.2032 6.94789 34.2032 6.28573C34.2032 5.84694 34.3693 5.48472 34.57 5.19261C34.7591 4.91765 35.0027 4.67233 35.2043 4.46927L35.2204 4.4531C35.4412 4.23068 35.615 4.05317 35.7402 3.87118C35.8585 3.69901 35.9051 3.56122 35.9051 3.42858C35.9051 3.09742 35.8715 2.95612 35.8503 2.897C35.8351 2.85448 35.8279 2.84543 35.7539 2.75348L35.7479 2.74606C35.6518 2.62639 35.532 2.46265 35.4497 2.18153C35.3746 1.92493 35.3378 1.59641 35.3378 1.14287C35.3378 0.827278 35.5919 0.571442 35.9051 0.571442Z"/>
</mask>
<path d="M36.538 1.85834L39.4175 1.01661L39.4168 1.01432L36.538 1.85834ZM36.6297 2.0269L34.2909 3.90575L34.2989 3.91568L34.3069 3.92555L36.6297 2.0269ZM36.6475 2.0487L38.971 0.150911L38.9703 0.150057L36.6475 2.0487ZM36.9173 2.5083L34.0937 3.52181L34.0941 3.52284L36.9173 2.5083ZM36.673 4.5217L39.1452 6.22124L39.1456 6.22063L36.673 4.5217ZM36.0387 5.24504L33.9104 3.13069L33.9059 3.13526L36.0387 5.24504ZM36.0227 5.26121L38.1518 7.37474L38.1555 7.37099L36.0227 5.26121ZM35.5029 5.84313L33.031 4.14326L33.0306 4.14381L35.5029 5.84313ZM35.4944 7.15016L32.9732 8.77608L32.9735 8.77651L35.4944 7.15016ZM35.7994 7.53314L33.5154 9.47827L33.5161 9.47905L35.7994 7.53314ZM36.359 8.22858L33.9526 10.0201L33.9529 10.0204L36.359 8.22858ZM36.8222 10.1454L33.8471 9.75992L33.8471 9.7601L36.8222 10.1454ZM35.5915 11.9397L34.2423 9.26021L34.2417 9.2605L35.5915 11.9397ZM34.768 12.5997L32.3097 10.8802L32.3096 10.8803L34.768 12.5997ZM34.7107 13.4588L37.3979 12.1249L37.3977 12.1245L34.7107 13.4588ZM34.457 14.2254L35.8064 16.9048L35.8069 16.9045L34.457 14.2254ZM33.6958 13.9698L31.0086 15.3036L31.0087 15.3037L33.6958 13.9698ZM33.8405 11.9414L31.3824 10.2215L31.382 10.2222L33.8405 11.9414ZM35.0841 10.9175L33.735 8.23796L33.7344 8.23823L35.0841 10.9175ZM35.6972 9.99753L32.7221 9.61173L32.7219 9.61308L35.6972 9.99753ZM35.4513 8.9143L33.0447 10.7055L33.0453 10.7062L35.4513 8.9143ZM34.9383 8.27736L37.2218 6.33165L37.2212 6.33101L34.9383 8.27736ZM34.9179 8.25341L32.6345 10.1992L32.635 10.1998L34.9179 8.25341ZM34.5431 7.77303L37.0638 6.14629L37.0636 6.14604L34.5431 7.77303ZM34.57 5.19261L32.0979 3.49307L32.0974 3.49368L34.57 5.19261ZM35.2043 4.46927L33.079 2.35186L33.0754 2.35552L35.2043 4.46927ZM35.2204 4.4531L37.3456 6.57051L37.3495 6.56662L35.2204 4.4531ZM35.7402 3.87118L38.2121 5.57105L38.2125 5.5705L35.7402 3.87118ZM35.8503 2.897L33.0255 3.90719L33.0267 3.91037L35.8503 2.897ZM35.7539 2.75348L38.0914 0.872975L38.0841 0.86404L35.7539 2.75348ZM35.7479 2.74606L33.4087 4.62454L33.4176 4.6355L35.7479 2.74606ZM35.4497 2.18153L38.329 1.33902L38.3289 1.33876L35.4497 2.18153ZM35.9051 3.57144C34.541 3.57144 33.4724 2.46338 33.4724 1.14287H39.4724C39.4724 -0.808819 37.896 -2.42856 35.9051 -2.42856V3.57144ZM33.4724 1.14287C33.4724 1.67575 33.513 2.20358 33.6592 2.70237L39.4168 1.01432C39.4627 1.17066 39.4744 1.27372 39.476 1.2884C39.4778 1.30471 39.4724 1.26369 39.4724 1.14287H33.4724ZM33.6585 2.70008C33.7147 2.89236 33.8078 3.1563 33.9739 3.44566C34.1202 3.70053 34.2793 3.89131 34.2909 3.90575L38.9685 0.148056C38.9345 0.105722 39.0597 0.253363 39.1776 0.458717C39.3153 0.698562 39.3854 0.906613 39.4175 1.01661L33.6585 2.70008ZM34.3069 3.92555L34.3248 3.94734L38.9703 0.150057L38.9524 0.128263L34.3069 3.92555ZM34.3241 3.94649C34.3517 3.98033 34.3039 3.9242 34.2528 3.84479C34.1988 3.76062 34.1404 3.65188 34.0937 3.52181L39.7409 1.49479C39.4783 0.763002 39.0858 0.291455 38.971 0.150911L34.3241 3.94649ZM34.0941 3.52284C34.0508 3.40245 34.0385 3.31986 34.0362 3.30232C34.035 3.2937 34.0361 3.29871 34.0373 3.32058C34.0385 3.34249 34.0397 3.37754 34.0397 3.42858H40.0397C40.0397 2.87967 39.9929 2.19602 39.7406 1.49376L34.0941 3.52284ZM34.0397 3.42858C34.0397 3.06873 34.1854 2.8447 34.2005 2.82278L39.1456 6.22063C39.5621 5.61448 40.0397 4.66602 40.0397 3.42858H34.0397ZM34.2009 2.82217C34.2072 2.81301 34.1927 2.83505 34.1378 2.89562C34.081 2.95829 34.0167 3.0237 33.9104 3.13069L38.1669 7.35939C38.3401 7.18513 38.7784 6.75479 39.1452 6.22124L34.2009 2.82217ZM33.9059 3.13526L33.8899 3.15143L38.1555 7.37099L38.1715 7.35482L33.9059 3.13526ZM33.8936 3.14769C33.7186 3.32397 33.3379 3.69695 33.031 4.14326L37.9748 7.543C37.9312 7.60647 37.9074 7.62849 37.9421 7.59046C37.958 7.57309 37.9816 7.54791 38.018 7.51047C38.0549 7.47253 38.097 7.42991 38.1518 7.37473L33.8936 3.14769ZM33.0306 4.14381C32.6936 4.63411 32.3378 5.35778 32.3378 6.28573H38.3378C38.3378 6.59006 38.281 6.86992 38.1941 7.10786C38.1131 7.32998 38.0197 7.47768 37.9752 7.54245L33.0306 4.14381ZM32.3378 6.28573C32.3378 6.65349 32.3561 7.08271 32.4514 7.51894C32.5713 8.06819 32.7776 8.47277 32.9732 8.77608L38.0156 5.52425C38.043 5.56681 38.1121 5.67774 38.1797 5.83224C38.2477 5.98746 38.289 6.12788 38.3131 6.23846C38.3527 6.41967 38.3378 6.4867 38.3378 6.28573H32.3378ZM32.9735 8.77651C33.1692 9.07989 33.4081 9.3523 33.5154 9.47827L38.0834 5.58802C38.0445 5.54243 38.0158 5.50858 37.9917 5.47994C37.9677 5.45142 37.9548 5.4357 37.9482 5.4275C37.9339 5.40976 37.9678 5.45016 38.0153 5.52381L32.9735 8.77651ZM33.5161 9.47905C33.6553 9.6424 33.7898 9.80131 33.9526 10.0201L38.7653 6.43709C38.4794 6.05296 38.2391 5.77083 38.0827 5.58724L33.5161 9.47905ZM33.9529 10.0204C33.8715 9.91114 33.8526 9.83712 33.8493 9.82323C33.8454 9.80678 33.8431 9.79049 33.8471 9.75992L39.7974 10.5308C39.9736 9.17074 39.6642 7.64407 38.7651 6.43673L33.9529 10.0204ZM33.8471 9.7601C33.8517 9.72471 33.8681 9.64519 33.9341 9.542C34.0093 9.42431 34.1221 9.32072 34.2423 9.26021L36.9408 14.6191C38.7828 13.6916 39.6084 11.9901 39.7974 10.5306L33.8471 9.7601ZM34.2417 9.2605C33.7288 9.51893 32.9048 10.0293 32.3097 10.8802L37.2264 14.3191C37.159 14.4155 37.0985 14.4815 37.0596 14.5204C37.02 14.5601 36.9902 14.5843 36.9753 14.5958C36.9598 14.6078 36.9509 14.6134 36.9488 14.6147C36.9465 14.6161 36.9447 14.6172 36.9414 14.6188L34.2417 9.2605ZM32.3096 10.8803C32.0378 11.2689 31.7135 11.8696 31.6274 12.6631C31.539 13.4772 31.732 14.2054 32.0237 14.793L37.3977 12.1245C37.5133 12.3573 37.6503 12.7768 37.5924 13.3105C37.5367 13.8236 37.3292 14.1721 37.2264 14.3191L32.3096 10.8803ZM32.0236 14.7926C31.4351 13.6071 31.9039 12.1525 33.1072 11.5462L35.8069 16.9045C37.5704 16.016 38.2666 13.8749 37.3979 12.1249L32.0236 14.7926ZM33.1076 11.546C34.3239 10.9334 35.7887 11.4389 36.383 12.636L31.0087 15.3037C31.8831 17.0654 34.0296 17.7996 35.8064 16.9048L33.1076 11.546ZM36.383 12.6361C36.4334 12.7376 36.4922 12.9412 36.4634 13.1959C36.4371 13.4286 36.3517 13.5852 36.299 13.6606L31.382 10.2222C30.4861 11.5033 30.0541 13.3804 31.0086 15.3036L36.383 12.6361ZM36.2985 13.6612C36.2761 13.6933 36.2608 13.7088 36.2597 13.7099C36.2585 13.7111 36.2661 13.7034 36.2848 13.689C36.3032 13.6747 36.327 13.6582 36.3552 13.6408C36.3832 13.6234 36.4105 13.6085 36.4338 13.5967L33.7344 8.23823C33.1396 8.53791 32.13 9.15309 31.3824 10.2215L36.2985 13.6612ZM36.4333 13.597C37.8601 12.8786 38.52 11.5614 38.6724 10.382L32.7219 9.61308C32.7437 9.44419 32.8091 9.18902 32.986 8.91425C33.1718 8.62572 33.4346 8.38922 33.735 8.23796L36.4333 13.597ZM38.6722 10.3833C38.8151 9.28201 38.5579 8.06297 37.8573 7.12236L33.0453 10.7062C32.852 10.4468 32.778 10.223 32.7469 10.0935C32.7124 9.94989 32.6989 9.79006 32.7221 9.61173L38.6722 10.3833ZM37.8579 7.12311C37.5951 6.77 37.3745 6.51093 37.2218 6.33165L32.6549 10.2231C32.7917 10.3836 32.9056 10.5186 33.0447 10.7055L37.8579 7.12311ZM37.2212 6.33101L37.2008 6.30705L32.635 10.1998L32.6554 10.2237L37.2212 6.33101ZM37.2013 6.30761C37.1301 6.22404 37.095 6.18249 37.0665 6.14674C37.0405 6.11414 37.0453 6.11757 37.0638 6.14629L32.0225 9.39977C32.2575 9.764 32.5282 10.0744 32.6345 10.1992L37.2013 6.30761ZM37.0636 6.14604C37.0896 6.18622 37.1213 6.24331 37.1504 6.31347C37.1793 6.38339 37.1961 6.44344 37.205 6.4841C37.2132 6.52146 37.212 6.53074 37.2094 6.49757C37.2065 6.4626 37.2032 6.39721 37.2032 6.28573H31.2032C31.2032 7.19051 31.3033 8.28557 32.0226 9.40003L37.0636 6.14604ZM37.2032 6.28573C37.2032 6.64606 37.0573 6.87016 37.0426 6.89153L32.0974 3.49368C31.6813 4.09928 31.2032 5.04782 31.2032 6.28573H37.2032ZM37.0422 6.89214C37.0359 6.90129 37.0504 6.87922 37.1054 6.81855C37.1623 6.75573 37.2266 6.69031 37.3331 6.58302L33.0754 2.35552C32.903 2.5292 32.4646 2.95969 32.0979 3.49307L37.0422 6.89214ZM37.3295 6.58667L37.3456 6.5705L33.0952 2.33569L33.0791 2.35187L37.3295 6.58667ZM37.3495 6.56662C37.5245 6.39034 37.9052 6.01736 38.2121 5.57105L33.2682 2.17131C33.3119 2.10784 33.3357 2.08582 33.301 2.12385C33.2851 2.14122 33.2614 2.1664 33.2251 2.20384C33.1882 2.24178 33.1461 2.2844 33.0913 2.33958L37.3495 6.56662ZM38.2125 5.5705C38.5504 5.07884 38.9051 4.35532 38.9051 3.42858H32.9051C32.9051 3.1251 32.9617 2.84557 33.0485 2.60742C33.1296 2.38505 33.223 2.23706 33.2678 2.17186L38.2125 5.5705ZM38.9051 3.42858C38.9051 2.94143 38.8622 2.40802 38.674 1.88362L33.0267 3.91037C32.9494 3.69505 32.9214 3.52864 32.9112 3.45147C32.9013 3.37595 32.9051 3.3593 32.9051 3.42858H38.9051ZM38.6751 1.8868C38.6143 1.71676 38.5063 1.4531 38.3052 1.15732C38.241 1.06277 38.183 0.988461 38.1592 0.958017C38.1334 0.925174 38.1053 0.8903 38.0914 0.872989L33.4164 4.63396C33.4395 4.66263 33.44 4.66337 33.4369 4.65941C33.4357 4.65786 33.3943 4.60571 33.343 4.53024C33.2808 4.43862 33.2067 4.31758 33.1357 4.16992C33.0714 4.03618 33.0332 3.92866 33.0255 3.90719L38.6751 1.8868ZM38.0841 0.86404L38.0781 0.856623L33.4176 4.6355L33.4236 4.64291L38.0841 0.86404ZM38.087 0.867602C38.0804 0.859358 38.1358 0.926902 38.1955 1.03096C38.2576 1.13911 38.3017 1.24582 38.329 1.33902L32.5704 3.02405C32.8047 3.82458 33.1801 4.33981 33.4088 4.62452L38.087 0.867602ZM38.3289 1.33876C38.3509 1.41408 38.3518 1.44649 38.348 1.41182C38.3441 1.37578 38.3378 1.29262 38.3378 1.14287H32.3378C32.3378 1.72755 32.3812 2.37749 32.5705 3.02431L38.3289 1.33876ZM38.3378 1.14287C38.3378 2.46379 37.269 3.57144 35.9051 3.57144V-2.42856C33.9147 -2.42856 32.3378 -0.809236 32.3378 1.14287H38.3378Z" fill="#094361" mask="url(#path-1-inside-1_2_2)"/>
<mask id="path-3-inside-2_2_2" fill="white">
<path d="M26.6635 1.14285C26.9767 1.14285 27.2308 1.39869 27.2308 1.71428C27.2308 2.11788 27.2649 2.32294 27.2962 2.42976C27.3203 2.51204 27.3423 2.54154 27.388 2.59832L27.4057 2.62011C27.4732 2.70276 27.5927 2.84896 27.6755 3.07971C27.7607 3.31683 27.7981 3.60835 27.7981 4C27.7981 4.43878 27.6321 4.801 27.4313 5.09312C27.2422 5.36808 26.9986 5.61339 26.797 5.81645L26.7809 5.83262C26.5601 6.05505 26.3863 6.23256 26.2611 6.41454C26.1429 6.58672 26.0962 6.7245 26.0962 6.85714C26.0962 7.42587 26.1623 7.58153 26.2526 7.72157C26.3164 7.82024 26.4033 7.92337 26.5577 8.10456C26.7054 8.27803 26.8929 8.49854 27.1173 8.8C27.4993 9.31313 27.6684 10.038 27.5806 10.7168C27.4905 11.4125 27.119 12.1238 26.3499 12.5111C26.0524 12.6609 25.72 12.8942 25.5262 13.1711C25.3572 13.4128 25.2927 13.6753 25.4689 14.0302C25.6091 14.3125 25.4955 14.6557 25.2152 14.7968C24.935 14.9379 24.5943 14.8235 24.4541 14.5413C24.0629 13.7533 24.2278 13.0432 24.5988 12.5128C24.9451 12.0177 25.4637 11.6797 25.8425 11.4889C26.2079 11.3048 26.4037 10.9685 26.4555 10.5689C26.5094 10.1525 26.3948 9.73449 26.2096 9.48571C26.0086 9.21573 25.8413 9.01868 25.6967 8.84877L25.6762 8.82482C25.5444 8.67024 25.4094 8.51181 25.3014 8.34444C25.0372 7.93507 24.9615 7.5193 24.9615 6.85714C24.9615 6.41835 25.1275 6.05613 25.3284 5.76402C25.5173 5.48906 25.7609 5.24374 25.9626 5.04068L25.9786 5.02451C26.1994 4.80209 26.3733 4.62458 26.4984 4.44259C26.6167 4.27042 26.6635 4.13264 26.6635 4C26.6635 3.66883 26.6299 3.52753 26.6087 3.46841C26.5933 3.42589 26.5861 3.41684 26.5121 3.32489L26.5062 3.31747C26.41 3.1978 26.2902 3.03406 26.2079 2.75294C26.1328 2.49634 26.0962 2.16782 26.0962 1.71428C26.0962 1.39869 26.3501 1.14285 26.6635 1.14285Z"/>
</mask>
<path d="M27.2962 2.42976L30.1757 1.58802L30.1751 1.58573L27.2962 2.42976ZM27.388 2.59832L25.0515 4.48002L25.0593 4.48961L27.388 2.59832ZM27.4057 2.62011L25.077 4.51141L25.0823 4.5179L27.4057 2.62011ZM27.6755 3.07971L24.8519 4.09322L24.8523 4.09425L27.6755 3.07971ZM27.4313 5.09312L24.9591 3.39354L24.9591 3.39358L27.4313 5.09312ZM26.797 5.81645L28.9223 7.93384L28.9259 7.9302L26.797 5.81645ZM26.7809 5.83262L24.6556 3.71523L24.6518 3.7191L26.7809 5.83262ZM26.2611 6.41454L23.7892 4.71467L23.7881 4.71633L26.2611 6.41454ZM26.2526 7.72157L23.7314 9.34749L23.733 9.34997L26.2526 7.72157ZM26.5577 8.10456L28.8418 6.15952L28.841 6.15861L26.5577 8.10456ZM27.1173 8.8L24.711 10.5915L24.711 10.5915L27.1173 8.8ZM27.5806 10.7168L30.5557 11.102L30.5558 11.1017L27.5806 10.7168ZM26.3499 12.5111L25.0006 9.83162L25.0004 9.8317L26.3499 12.5111ZM25.5262 13.1711L23.0683 11.451L23.0679 11.4517L25.5262 13.1711ZM25.4689 14.0302L28.1561 12.6963L28.1559 12.6959L25.4689 14.0302ZM24.4541 14.5413L27.1413 13.2074L27.1412 13.2072L24.4541 14.5413ZM24.5988 12.5128L27.0571 14.2324L27.0571 14.2323L24.5988 12.5128ZM25.8425 11.4889L27.1919 14.1683L27.1921 14.1682L25.8425 11.4889ZM26.4555 10.5689L29.4306 10.9542L29.4307 10.9539L26.4555 10.5689ZM26.2096 9.48571L28.6162 7.69447L28.6157 7.69387L26.2096 9.48571ZM25.6967 8.84877L27.9809 6.90395L27.9796 6.90242L25.6967 8.84877ZM25.6762 8.82482L27.9591 6.87846L27.9588 6.87805L25.6762 8.82482ZM25.3014 8.34444L22.7805 9.97094L22.7807 9.97118L25.3014 8.34444ZM25.3284 5.76402L27.8005 7.4636L27.801 7.46286L25.3284 5.76402ZM25.9626 5.04068L28.0909 7.15503L28.0953 7.15061L25.9626 5.04068ZM25.9786 5.02451L23.8495 2.91099L23.846 2.91458L25.9786 5.02451ZM26.4984 4.44259L24.0261 2.74327L24.0257 2.74377L26.4984 4.44259ZM26.6087 3.46841L29.4323 2.45503L29.4311 2.45153L26.6087 3.46841ZM26.5121 3.32489L24.1642 5.19233L24.1694 5.19887L24.1746 5.20537L26.5121 3.32489ZM26.5062 3.31747L28.8541 1.45002L28.8492 1.44383L28.8442 1.43767L26.5062 3.31747ZM26.2079 2.75294L29.0872 1.91043L29.0871 1.91017L26.2079 2.75294ZM26.6635 4.14285C25.2996 4.14285 24.2308 3.0352 24.2308 1.71428H30.2308C30.2308 -0.23781 28.6539 -1.85715 26.6635 -1.85715V4.14285ZM24.2308 1.71428C24.2308 2.24592 24.271 2.77427 24.4174 3.27378L30.1751 1.58573C30.1986 1.66607 30.2129 1.73134 30.2214 1.77665C30.2299 1.82183 30.2333 1.85112 30.2343 1.86055C30.2361 1.87666 30.2308 1.83542 30.2308 1.71428H24.2308ZM24.4167 3.27149C24.4729 3.4637 24.5662 3.7282 24.7328 4.01822C24.8798 4.27392 25.0394 4.465 25.0515 4.48L29.7245 0.71663C29.6909 0.674856 29.8167 0.8228 29.9352 1.02898C30.0734 1.26949 30.1436 1.4781 30.1757 1.58802L24.4167 3.27149ZM25.0593 4.48961L25.077 4.5114L29.7345 0.728817L29.7168 0.707023L25.0593 4.48961ZM25.0823 4.5179C25.1099 4.55174 25.0621 4.49561 25.0111 4.4162C24.957 4.33203 24.8986 4.22329 24.8519 4.09322L30.4992 2.0662C30.2365 1.33441 29.844 0.862866 29.7292 0.722322L25.0823 4.5179ZM24.8523 4.09425C24.8092 3.97425 24.7969 3.8919 24.7945 3.87428C24.7934 3.86564 24.7944 3.8706 24.7956 3.89236C24.7968 3.91417 24.7981 3.9491 24.7981 4H30.7981C30.7981 3.45014 30.7509 2.76689 30.4988 2.06517L24.8523 4.09425ZM24.7981 4C24.7981 3.64008 24.9438 3.41588 24.9591 3.39354L29.9034 6.79269C30.3204 6.18613 30.7981 5.23749 30.7981 4H24.7981ZM24.9591 3.39358C24.9654 3.38443 24.9509 3.4065 24.8959 3.46717C24.839 3.52999 24.7747 3.59542 24.6681 3.7027L28.9259 7.9302C29.0983 7.75653 29.5367 7.32604 29.9034 6.79265L24.9591 3.39358ZM24.6718 3.69907L24.6556 3.71524L28.9061 7.95001L28.9223 7.93384L24.6718 3.69907ZM24.6518 3.7191C24.4768 3.89537 24.0961 4.26836 23.7892 4.71467L28.7331 8.11442C28.6894 8.17789 28.6656 8.19991 28.7003 8.16188C28.7162 8.14451 28.7399 8.11933 28.7762 8.08189C28.8131 8.04395 28.8552 8.00132 28.91 7.94614L24.6518 3.7191ZM23.7881 4.71633C23.4517 5.20616 23.0962 5.92951 23.0962 6.85714H29.0962C29.0962 7.16143 29.0393 7.44112 28.9526 7.67877C28.8717 7.90063 28.7786 8.04814 28.7342 8.11276L23.7881 4.71633ZM23.0962 6.85714C23.0962 7.22466 23.1143 7.6537 23.2095 8.08974C23.3293 8.63886 23.5355 9.04363 23.7314 9.34749L28.7738 6.09566C28.8014 6.13849 28.8705 6.24957 28.9382 6.40422C29.0062 6.55954 29.0474 6.69999 29.0715 6.81049C29.111 6.9915 29.0962 7.05835 29.0962 6.85714H23.0962ZM23.733 9.34997C23.9282 9.65192 24.165 9.92212 24.2745 10.0505L28.841 6.15861C28.8023 6.11328 28.7736 6.07952 28.7497 6.05109C28.7259 6.02276 28.713 6.00708 28.7065 5.99891C28.6923 5.9814 28.7255 6.02092 28.7722 6.09317L23.733 9.34997ZM24.2737 10.0496C24.414 10.2144 24.5482 10.3729 24.711 10.5915L29.5237 7.0085C29.2375 6.62415 28.9969 6.34171 28.8418 6.15952L24.2737 10.0496ZM24.711 10.5915C24.6296 10.4823 24.6108 10.4084 24.6076 10.3946C24.6037 10.3784 24.6014 10.3622 24.6054 10.3318L30.5558 11.1017C30.7317 9.742 30.4224 8.21567 29.5236 7.00848L24.711 10.5915ZM24.6054 10.3315C24.61 10.2961 24.6264 10.2166 24.6924 10.1134C24.7677 9.99572 24.8804 9.89213 25.0006 9.83162L27.6991 15.1905C29.5411 14.263 30.3667 12.5615 30.5557 11.102L24.6054 10.3315ZM25.0004 9.8317C24.4865 10.0905 23.6633 10.6008 23.0683 11.451L27.9841 14.8912C27.9169 14.9873 27.8565 15.0531 27.8177 15.0919C27.7782 15.1316 27.7484 15.1557 27.7335 15.1673C27.7081 15.1869 27.6995 15.1904 27.6993 15.1905L25.0004 9.8317ZM23.0679 11.4517C22.796 11.8404 22.4718 12.441 22.3856 13.2345C22.2973 14.0486 22.4902 14.7768 22.782 15.3644L28.1559 12.6959C28.2715 12.9287 28.4085 13.3482 28.3506 13.8819C28.2949 14.395 28.0874 14.7435 27.9846 14.8905L23.0679 11.4517ZM22.7818 15.3641C22.1937 14.1793 22.6615 12.724 23.8658 12.1174L26.5647 17.4762C28.3295 16.5873 29.0245 14.4457 28.1561 12.6963L22.7818 15.3641ZM23.8658 12.1174C25.0825 11.5047 26.5472 12.0106 27.1413 13.2074L21.767 15.8751C22.6413 17.6365 24.7875 18.3712 26.5647 17.4762L23.8658 12.1174ZM27.1412 13.2072C27.1916 13.3087 27.2505 13.5124 27.2217 13.7674C27.1953 14.0002 27.1098 14.1569 27.0571 14.2324L22.1405 10.7932C21.2442 12.0745 20.8122 13.9519 21.7671 15.8753L27.1412 13.2072ZM27.0571 14.2323C27.0346 14.2645 27.0193 14.28 27.0181 14.2812C27.0169 14.2825 27.0244 14.2748 27.043 14.2605C27.0613 14.2463 27.0851 14.2297 27.1132 14.2123C27.1413 14.195 27.1685 14.18 27.1919 14.1683L24.493 8.80953C23.898 9.10921 22.8881 9.72447 22.1405 10.7933L27.0571 14.2323ZM27.1921 14.1682C28.6185 13.4497 29.278 12.1328 29.4306 10.9542L23.4803 10.1837C23.5022 10.0151 23.5675 9.7602 23.7442 9.48569C23.9298 9.19741 24.1925 8.96094 24.4928 8.80963L27.1921 14.1682ZM29.4307 10.9539C29.5731 9.85312 29.316 8.63473 28.6162 7.69447L23.8031 11.2769C23.6101 11.0177 23.5362 10.7941 23.5051 10.6649C23.4707 10.5216 23.4572 10.362 23.4803 10.1839L29.4307 10.9539ZM28.6157 7.69387C28.3531 7.34124 28.1328 7.08241 27.9809 6.90395L23.4124 10.7936C23.5498 10.955 23.664 11.0902 23.8035 11.2775L28.6157 7.69387ZM27.9796 6.90242L27.9591 6.87846L23.3933 10.7712L23.4137 10.7951L27.9796 6.90242ZM27.9588 6.87805C27.8879 6.79491 27.8528 6.75339 27.8245 6.7179C27.7986 6.68548 27.8035 6.68897 27.822 6.7177L22.7807 9.97118C23.0159 10.3357 23.2865 10.6459 23.3937 10.7716L27.9588 6.87805ZM27.8222 6.71794C27.8481 6.7581 27.8798 6.81514 27.9088 6.88523C27.9377 6.95509 27.9545 7.01508 27.9634 7.05568C27.9715 7.09298 27.9704 7.10221 27.9677 7.06901C27.9649 7.03402 27.9615 6.96861 27.9615 6.85714H21.9615C21.9615 7.76193 22.0616 8.8567 22.7805 9.97094L27.8222 6.71794ZM27.9615 6.85714C27.9615 7.21705 27.8158 7.44126 27.8005 7.4636L22.8562 4.06444C22.4392 4.67101 21.9615 5.61965 21.9615 6.85714H27.9615ZM27.801 7.46286C27.7945 7.4723 27.8088 7.45045 27.8636 7.38996C27.9203 7.32738 27.9846 7.26203 28.0909 7.15503L23.8343 2.92633C23.6613 3.10051 23.2226 3.53116 22.8557 4.06517L27.801 7.46286ZM28.0953 7.15061L28.1113 7.13444L23.846 2.91458L23.83 2.93076L28.0953 7.15061ZM28.1077 7.13803C28.2818 6.96265 28.6637 6.58871 28.971 6.14141L24.0257 2.74377C24.0698 2.67955 24.0941 2.65708 24.0594 2.69508C24.0436 2.71241 24.0199 2.73757 23.9835 2.77506C23.9466 2.81305 23.9044 2.8557 23.8495 2.91099L28.1077 7.13803ZM28.9707 6.14191C29.3077 5.65162 29.6635 4.92794 29.6635 4H23.6635C23.6635 3.69567 23.7203 3.4158 23.8071 3.17787C23.8882 2.95574 23.9815 2.80804 24.0261 2.74327L28.9707 6.14191ZM29.6635 4C29.6635 3.51284 29.6205 2.97943 29.4323 2.45504L23.785 4.48178C23.7077 4.26646 23.6797 4.10005 23.6696 4.02289C23.6596 3.94736 23.6635 3.93071 23.6635 4H29.6635ZM29.4311 2.45153C29.3703 2.28286 29.2625 2.02123 29.0626 1.72749C28.9987 1.63352 28.941 1.55962 28.9172 1.52926C28.8916 1.49652 28.8635 1.46175 28.8496 1.4444L24.1746 5.20537C24.1977 5.234 24.1983 5.23484 24.1953 5.231C24.1941 5.22952 24.1531 5.17778 24.1021 5.10289C24.0403 5.01197 23.9667 4.89192 23.896 4.74554C23.832 4.61299 23.7939 4.50646 23.7863 4.48528L29.4311 2.45153ZM28.86 1.45744L28.8541 1.45002L24.1583 5.18492L24.1642 5.19233L28.86 1.45744ZM28.8442 1.43767C28.8381 1.43 28.8936 1.49774 28.9535 1.60206C29.0157 1.71041 29.0599 1.81723 29.0872 1.91043L23.3286 3.59546C23.5629 4.39605 23.9384 4.91154 24.1682 5.19727L28.8442 1.43767ZM29.0871 1.91017C29.1093 1.98584 29.1101 2.01847 29.1063 1.98372C29.1024 1.9476 29.0962 1.86431 29.0962 1.71428H23.0962C23.0962 2.29814 23.1393 2.94842 23.3287 3.59572L29.0871 1.91017ZM29.0962 1.71428C29.0962 3.0348 28.0276 4.14285 26.6635 4.14285V-1.85715C24.6726 -1.85715 23.0962 -0.237418 23.0962 1.71428H29.0962Z" fill="#094361" mask="url(#path-3-inside-2_2_2)"/>
<mask id="path-5-inside-3_2_2" fill="white">
<path d="M31.934 1.14287C31.934 0.827281 31.68 0.571442 31.3667 0.571442C31.0534 0.571442 30.7994 0.827278 30.7994 1.14287C30.7994 1.59641 30.8361 1.92493 30.9112 2.18153C30.9935 2.46265 31.1133 2.62639 31.2094 2.74606L31.2154 2.75348C31.2894 2.84543 31.2967 2.85448 31.3119 2.897C31.3331 2.95612 31.3667 3.09742 31.3667 3.42858C31.3667 3.56122 31.32 3.69901 31.2017 3.87118C31.0765 4.05317 30.9027 4.23068 30.6819 4.4531L30.6658 4.46927C30.4642 4.67233 30.2206 4.91765 30.0316 5.19261C29.8309 5.48472 29.6647 5.84694 29.6647 6.28573C29.6647 6.94789 29.7404 7.36366 30.0047 7.77303C30.1127 7.9404 30.2476 8.09877 30.3794 8.25335L30.3999 8.27736C30.5446 8.44727 30.7119 8.64432 30.9128 8.9143C31.0981 9.16308 31.2127 9.58105 31.1587 9.99753C31.1071 10.3971 30.9112 10.7334 30.5457 10.9175C30.167 11.1082 29.6484 11.4463 29.302 11.9414C28.9311 12.4718 28.7662 13.1818 29.1573 13.9698C29.2975 14.2521 29.6383 14.3665 29.9186 14.2254C30.1987 14.0842 30.3124 13.741 30.1723 13.4588C29.9961 13.1039 30.0605 12.8414 30.2296 12.5997C30.4232 12.3228 30.7557 12.0895 31.0531 11.9397C31.8222 11.5524 32.1937 10.8411 32.2838 10.1454C32.3717 9.4666 32.2027 8.74172 31.8205 8.22858C31.5961 7.92713 31.4088 7.70662 31.2609 7.53314C31.1066 7.35196 31.0196 7.24882 30.9559 7.15016C30.8656 7.01012 30.7994 6.85446 30.7994 6.28573C30.7994 6.15309 30.8461 6.0153 30.9644 5.84313C31.0896 5.66114 31.2634 5.48364 31.4842 5.26121L31.5002 5.24504C31.7019 5.04198 31.9455 4.79666 32.1346 4.5217C32.3353 4.22959 32.5013 3.86737 32.5013 3.42858C32.5013 3.03694 32.464 2.74542 32.3789 2.5083C32.296 2.27754 32.1766 2.13135 32.109 2.0487L32.0912 2.0269C32.0456 1.97013 32.0236 1.94063 31.9996 1.85834C31.9682 1.75153 31.934 1.54647 31.934 1.14287Z"/>
</mask>
<path d="M30.9112 2.18153L33.7905 1.33902L33.7904 1.33876L30.9112 2.18153ZM31.2094 2.74606L28.8703 4.62454L28.8792 4.6355L31.2094 2.74606ZM31.2154 2.75348L33.5529 0.872975L33.5457 0.86404L31.2154 2.75348ZM31.3119 2.897L28.4871 3.90719L28.4882 3.91037L31.3119 2.897ZM31.2017 3.87118L33.6736 5.57105L33.674 5.5705L31.2017 3.87118ZM30.6819 4.4531L32.8072 6.57051L32.811 6.56662L30.6819 4.4531ZM30.6658 4.46927L28.5406 2.35186L28.537 2.35552L30.6658 4.46927ZM30.0316 5.19261L27.5594 3.49307L27.559 3.49368L30.0316 5.19261ZM30.0047 7.77303L32.5253 6.14629L32.5252 6.14604L30.0047 7.77303ZM30.3794 8.25335L32.6646 6.30968L32.662 6.30658L30.3794 8.25335ZM30.3999 8.27736L28.1147 10.221L28.1164 10.2231L30.3999 8.27736ZM30.9128 8.9143L28.5062 10.7055L28.5068 10.7062L30.9128 8.9143ZM31.1587 9.99753L28.1836 9.61173L28.1834 9.61308L31.1587 9.99753ZM30.5457 10.9175L29.1965 8.23796L29.196 8.23823L30.5457 10.9175ZM29.302 11.9414L26.8439 10.2215L26.8435 10.2222L29.302 11.9414ZM29.1573 13.9698L26.4701 15.3036L26.4702 15.3037L29.1573 13.9698ZM29.9186 14.2254L31.268 16.9048L31.2684 16.9045L29.9186 14.2254ZM30.1723 13.4588L32.8594 12.1249L32.8592 12.1245L30.1723 13.4588ZM30.2296 12.5997L27.7712 10.8802L27.7712 10.8803L30.2296 12.5997ZM31.0531 11.9397L29.7038 9.26021L29.7032 9.2605L31.0531 11.9397ZM32.2838 10.1454L29.3086 9.75992L29.3086 9.7601L32.2838 10.1454ZM31.8205 8.22858L29.4142 10.0201L29.4144 10.0204L31.8205 8.22858ZM31.2609 7.53314L28.977 9.47827L28.9776 9.47905L31.2609 7.53314ZM30.9559 7.15016L28.4347 8.77608L28.435 8.77651L30.9559 7.15016ZM30.9644 5.84313L28.4925 4.14326L28.4921 4.14381L30.9644 5.84313ZM31.4842 5.26121L33.6133 7.37474L33.617 7.37099L31.4842 5.26121ZM31.5002 5.24504L29.3719 3.13069L29.3674 3.13526L31.5002 5.24504ZM32.1346 4.5217L34.6067 6.22124L34.6072 6.22063L32.1346 4.5217ZM32.3789 2.5083L35.2025 1.49496L35.2025 1.49479L32.3789 2.5083ZM32.109 2.0487L34.4325 0.150911L34.4319 0.150196L32.109 2.0487ZM32.0912 2.0269L29.7524 3.90575L29.7604 3.91561L29.7684 3.92541L32.0912 2.0269ZM31.9996 1.85834L34.879 1.01661L34.8784 1.01432L31.9996 1.85834ZM34.934 1.14287C34.934 -0.808834 33.3576 -2.42856 31.3667 -2.42856V3.57144C30.0025 3.57144 28.934 2.4634 28.934 1.14287H34.934ZM31.3667 -2.42856C29.3763 -2.42856 27.7994 -0.809236 27.7994 1.14287H33.7994C33.7994 2.46379 32.7305 3.57144 31.3667 3.57144V-2.42856ZM27.7994 1.14287C27.7994 1.72755 27.8427 2.37749 28.032 3.02431L33.7904 1.33876C33.8125 1.41408 33.8133 1.44649 33.8096 1.41182C33.8056 1.37578 33.7994 1.29262 33.7994 1.14287H27.7994ZM28.032 3.02405C28.2662 3.82458 28.6417 4.33981 28.8703 4.62452L33.5485 0.867602C33.5419 0.859358 33.5973 0.926902 33.657 1.03096C33.7191 1.13911 33.7632 1.24582 33.7905 1.33902L28.032 3.02405ZM28.8792 4.6355L28.8852 4.64291L33.5457 0.86404L33.5397 0.856623L28.8792 4.6355ZM28.878 4.63396C28.901 4.66263 28.9015 4.66337 28.8984 4.65941C28.8972 4.65786 28.8559 4.60571 28.8046 4.53024C28.7423 4.43862 28.6683 4.31758 28.5973 4.16992C28.5329 4.03618 28.4947 3.92866 28.4871 3.90719L34.1367 1.8868C34.0759 1.71676 33.9678 1.4531 33.7668 1.15732C33.7025 1.06277 33.6446 0.988461 33.6207 0.958017C33.5949 0.925174 33.5668 0.8903 33.5529 0.872989L28.878 4.63396ZM28.4882 3.91037C28.4109 3.69505 28.3829 3.52864 28.3728 3.45147C28.3629 3.37595 28.3667 3.3593 28.3667 3.42858H34.3667C34.3667 2.94143 34.3237 2.40802 34.1355 1.88362L28.4882 3.91037ZM28.3667 3.42858C28.3667 3.1251 28.4232 2.84557 28.5101 2.60742C28.5911 2.38505 28.6846 2.23706 28.7294 2.17186L33.674 5.5705C34.0119 5.07884 34.3667 4.35532 34.3667 3.42858H28.3667ZM28.7298 2.17131C28.7734 2.10784 28.7972 2.08582 28.7625 2.12385C28.7466 2.14122 28.723 2.1664 28.6866 2.20384C28.6497 2.24178 28.6076 2.2844 28.5528 2.33958L32.811 6.56662C32.986 6.39034 33.3667 6.01736 33.6736 5.57105L28.7298 2.17131ZM28.5567 2.33569L28.5406 2.35187L32.791 6.58667L32.8072 6.5705L28.5567 2.33569ZM28.537 2.35552C28.3645 2.5292 27.9261 2.95969 27.5594 3.49307L32.5037 6.89214C32.4974 6.90129 32.5119 6.87922 32.5669 6.81855C32.6238 6.75573 32.6882 6.69031 32.7947 6.58302L28.537 2.35552ZM27.559 3.49368C27.1429 4.09928 26.6647 5.04782 26.6647 6.28573H32.6647C32.6647 6.64606 32.5188 6.87016 32.5041 6.89153L27.559 3.49368ZM26.6647 6.28573C26.6647 7.19051 26.7648 8.28557 27.4842 9.40003L32.5252 6.14604C32.5511 6.18622 32.5829 6.24331 32.6119 6.31347C32.6409 6.38339 32.6577 6.44344 32.6665 6.4841C32.6747 6.52146 32.6736 6.53074 32.6709 6.49757C32.6681 6.4626 32.6647 6.39721 32.6647 6.28573H26.6647ZM27.484 9.39977C27.7191 9.76407 27.9892 10.0739 28.0969 10.2001L32.662 6.30658C32.5913 6.22368 32.5563 6.18215 32.528 6.14676C32.5022 6.11441 32.5069 6.11778 32.5253 6.14629L27.484 9.39977ZM28.0942 10.197L28.1147 10.221L32.6851 6.3337L32.6646 6.30969L28.0942 10.197ZM28.1164 10.2231C28.2532 10.3836 28.3672 10.5186 28.5062 10.7055L33.3194 7.12311C33.0566 6.77 32.8361 6.51093 32.6833 6.33165L28.1164 10.2231ZM28.5068 10.7062C28.3136 10.4468 28.2395 10.223 28.2084 10.0935C28.1739 9.94989 28.1605 9.79006 28.1836 9.61173L34.1338 10.3833C34.2766 9.28201 34.0194 8.06297 33.3188 7.12236L28.5068 10.7062ZM28.1834 9.61308C28.2053 9.44419 28.2706 9.18902 28.4475 8.91425C28.6333 8.62572 28.8961 8.38922 29.1965 8.23796L31.8948 13.597C33.3217 12.8786 33.9816 11.5614 34.134 10.382L28.1834 9.61308ZM29.196 8.23823C28.6011 8.53791 27.5915 9.15309 26.8439 10.2215L31.7601 13.6612C31.7376 13.6933 31.7223 13.7088 31.7212 13.7099C31.7201 13.7111 31.7277 13.7034 31.7463 13.689C31.7647 13.6747 31.7885 13.6582 31.8167 13.6408C31.8448 13.6234 31.872 13.6085 31.8953 13.5967L29.196 8.23823ZM26.8435 10.2222C25.9476 11.5033 25.5156 13.3804 26.4701 15.3036L31.8446 12.6361C31.8949 12.7376 31.9537 12.9412 31.9249 13.1959C31.8986 13.4286 31.8132 13.5852 31.7605 13.6606L26.8435 10.2222ZM26.4702 15.3037C27.3447 17.0654 29.4912 17.7996 31.268 16.9048L28.5691 11.546C29.7855 10.9334 31.2503 11.4389 31.8445 12.636L26.4702 15.3037ZM31.2684 16.9045C33.032 16.016 33.7281 13.8749 32.8594 12.1249L27.4851 14.7926C26.8966 13.6071 27.3654 12.1525 28.5687 11.5462L31.2684 16.9045ZM32.8592 12.1245C32.9748 12.3573 33.1118 12.7768 33.0539 13.3105C32.9982 13.8236 32.7907 14.1721 32.6879 14.3191L27.7712 10.8803C27.4993 11.2689 27.1751 11.8696 27.089 12.6631C27.0006 13.4772 27.1935 14.2054 27.4853 14.793L32.8592 12.1245ZM32.6879 14.3191C32.6205 14.4155 32.56 14.4815 32.5211 14.5204C32.4815 14.5601 32.4517 14.5843 32.4368 14.5958C32.4213 14.6078 32.4124 14.6134 32.4103 14.6147C32.408 14.6161 32.4062 14.6172 32.4029 14.6188L29.7032 9.2605C29.1903 9.51893 28.3663 10.0293 27.7712 10.8802L32.6879 14.3191ZM32.4023 14.6191C34.2443 13.6916 35.07 11.9901 35.2589 10.5306L29.3086 9.7601C29.3132 9.72471 29.3296 9.64519 29.3956 9.542C29.4709 9.4243 29.5836 9.32072 29.7038 9.26021L32.4023 14.6191ZM35.2589 10.5308C35.4351 9.17073 35.1257 7.64407 34.2266 6.43673L29.4144 10.0204C29.333 9.91114 29.3142 9.83712 29.3108 9.82323C29.3069 9.80679 29.3047 9.79049 29.3086 9.75992L35.2589 10.5308ZM34.2269 6.43709C33.9409 6.05296 33.7007 5.77083 33.5442 5.58724L28.9776 9.47905C29.1168 9.6424 29.2513 9.80131 29.4142 10.0201L34.2269 6.43709ZM33.5449 5.58802C33.5061 5.54243 33.4773 5.50858 33.4532 5.47994C33.4292 5.45142 33.4163 5.4357 33.4097 5.4275C33.3954 5.40976 33.4293 5.45016 33.4768 5.52381L28.435 8.77651C28.6307 9.07989 28.8697 9.3523 28.977 9.47827L33.5449 5.58802ZM33.4771 5.52425C33.5046 5.56681 33.5736 5.67774 33.6413 5.83224C33.7093 5.98746 33.7505 6.12788 33.7747 6.23846C33.8143 6.41967 33.7994 6.4867 33.7994 6.28573H27.7994C27.7994 6.65349 27.8176 7.08271 27.9129 7.51894C28.0329 8.06819 28.2391 8.47277 28.4347 8.77608L33.4771 5.52425ZM33.7994 6.28573C33.7994 6.59006 33.7425 6.86992 33.6557 7.10786C33.5746 7.32998 33.4813 7.47768 33.4368 7.54245L28.4921 4.14381C28.1551 4.63411 27.7994 5.35778 27.7994 6.28573H33.7994ZM33.4364 7.543C33.3927 7.60647 33.3689 7.62849 33.4036 7.59046C33.4195 7.57309 33.4432 7.54791 33.4795 7.51047C33.5164 7.47253 33.5585 7.42991 33.6133 7.37473L29.3551 3.14769C29.1801 3.32397 28.7994 3.69695 28.4925 4.14326L33.4364 7.543ZM33.617 7.37099L33.633 7.35482L29.3674 3.13526L29.3514 3.15143L33.617 7.37099ZM33.6285 7.35939C33.8016 7.18514 34.2399 6.75479 34.6067 6.22124L29.6624 2.82217C29.6687 2.81301 29.6542 2.83504 29.5993 2.89562C29.5425 2.95828 29.4782 3.0237 29.3719 3.13069L33.6285 7.35939ZM34.6072 6.22063C35.0236 5.61448 35.5013 4.66602 35.5013 3.42858H29.5013C29.5013 3.06873 29.6469 2.8447 29.662 2.82278L34.6072 6.22063ZM35.5013 3.42858C35.5013 2.87857 35.4541 2.19596 35.2025 1.49496L29.5552 3.52164C29.5123 3.40203 29.5 3.32002 29.4977 3.3026C29.4966 3.29405 29.4976 3.29909 29.4988 3.32089C29.5001 3.34274 29.5013 3.37769 29.5013 3.42858H35.5013ZM35.2025 1.49479C34.9398 0.763002 34.5473 0.291455 34.4325 0.150911L29.7856 3.94649C29.8132 3.98033 29.7654 3.9242 29.7144 3.84479C29.6603 3.76062 29.6019 3.65188 29.5552 3.52181L35.2025 1.49479ZM34.4319 0.150196L34.4141 0.128401L29.7684 3.92541L29.7862 3.9472L34.4319 0.150196ZM34.43 0.148056C34.396 0.105694 34.5212 0.253335 34.6391 0.458674C34.7768 0.698522 34.8469 0.906582 34.879 1.01661L29.1201 2.70008C29.1763 2.89239 29.2694 3.15634 29.4355 3.44571C29.5818 3.70056 29.7409 3.89134 29.7524 3.90575L34.43 0.148056ZM34.8784 1.01432C34.9242 1.17068 34.9359 1.27374 34.9375 1.28842C34.9393 1.30472 34.934 1.2637 34.934 1.14287H28.934C28.934 1.67572 28.9745 2.20357 29.1207 2.70237L34.8784 1.01432Z" fill="#094361" mask="url(#path-5-inside-3_2_2)"/>
<path d="M24.8662 21.4598C25.0401 21.1973 24.9696 20.8425 24.7089 20.6674C24.4482 20.4923 24.0959 20.5633 23.9222 20.8259L20.5184 25.9688C20.3446 26.2313 20.415 26.5861 20.6756 26.7611C20.9364 26.9362 21.2886 26.8653 21.4624 26.6026L24.8662 21.4598Z" fill="#094361" stroke="#094361"/>
<path d="M30.0673 21.1429C30.0673 20.8273 29.8133 20.5714 29.5 20.5714C29.1867 20.5714 28.9327 20.8273 28.9327 21.1429V26.2857C28.9327 26.6013 29.1867 26.8572 29.5 26.8572C29.8133 26.8572 30.0673 26.6013 30.0673 26.2857V21.1429Z" fill="#094361" stroke="#094361"/>
<path d="M34.4692 21.9138C34.2653 21.6742 33.9072 21.6465 33.6693 21.8519C33.4313 22.0573 33.4039 22.418 33.6078 22.6576L37.0116 26.6576C37.2155 26.8973 37.5736 26.9249 37.8115 26.7196C38.0494 26.5142 38.0769 26.1535 37.873 25.9138L34.4692 21.9138Z" fill="#094361" stroke="#094361"/>
<path fill-rule="evenodd" clip-rule="evenodd" d="M10.5349 21.7517C12.6815 19.4493 15.8555 17.7143 20.4231 17.7143H39.7239L39.7362 17.7149C41.9767 17.8129 45.2896 18.4866 47.9481 20.2204C50.5188 21.8969 52.4862 24.5806 52.2389 28.6234C53.7364 28.7914 55.6292 29.2781 56.9617 30.303C57.7312 30.895 58.3416 31.6893 58.5426 32.7241C58.7431 33.7559 58.5195 34.9378 57.7961 36.2736L57.7765 36.3098L57.7519 36.3429C57.0285 37.3144 55.7641 37.9066 54.3641 38.0904L50.8918 48H8.65244L5.69612 37.8756L5.69434 37.8693C5.05858 37.8257 4.42752 37.695 3.81806 37.453C2.59147 36.9661 1.49693 36.0454 0.64458 34.5736L0.614986 34.5225L0.596413 34.4664C0.196286 33.2573 -0.00266075 31.4088 0.951554 30.018C1.897 28.6399 3.78859 27.9538 6.95119 28.4837C7.49168 26.4066 8.57458 23.8544 10.5349 21.7517ZM11.362 22.5341C9.40932 24.6286 8.38624 27.2394 7.92819 29.2695L7.8057 29.8124L7.26374 29.7032C3.94212 29.0341 2.49473 29.779 1.88497 30.6678C1.24304 31.6034 1.31383 32.9801 1.65467 34.0492C2.38531 35.2888 3.27909 36.0106 4.23415 36.3898C5.21078 36.7776 6.29612 36.8244 7.40883 36.6365C9.6493 36.2581 11.8873 34.9464 13.2609 33.8396L13.6677 33.5118L14.0265 33.8919C15.1625 35.0953 16.2235 35.7423 17.1758 36.0294C18.1229 36.3148 18.9969 36.2549 19.7854 35.9871C21.3893 35.4425 22.6626 34.026 23.3362 32.8561L23.8401 31.9812L24.324 32.8674C25.5443 35.1022 26.7555 36.3865 27.8756 37.0416C28.9763 37.6854 30.0233 37.7428 30.9984 37.4521C31.9934 37.1554 32.9411 36.4862 33.7789 35.6337C34.6136 34.7845 35.3115 33.7815 35.8106 32.8674L36.3021 31.9673L36.8022 32.8628C37.7904 34.6325 38.8181 35.6988 39.8024 36.2918C40.778 36.8796 41.7416 37.0216 42.6528 36.8914C44.5131 36.6255 46.2112 35.2103 47.2077 33.9327L47.7352 33.2566L48.1498 34.0082C49.1779 35.8724 50.9801 36.7898 52.7473 36.9745C54.5305 37.1608 56.1209 36.5926 56.8204 35.6886C57.4409 34.5284 57.5629 33.6319 57.4292 32.9437C57.2947 32.2512 56.8839 31.6813 56.273 31.2113C55.0231 30.2498 53.0568 29.8055 51.5896 29.7132L50.9954 29.6758L51.0612 29.0798C51.4869 25.2206 49.7354 22.7476 47.3313 21.1797C44.898 19.5927 41.8077 18.9514 39.6991 18.8572H20.4231C16.177 18.8572 13.2998 20.4556 11.362 22.5341ZM6.87316 37.8562L9.50139 46.8572H50.089L53.141 38.1471C52.9708 38.1409 52.8002 38.129 52.6302 38.1112C50.7884 37.9189 48.8614 37.0349 47.5865 35.245C46.4586 36.4766 44.76 37.7446 42.8121 38.0229C41.6574 38.1879 40.4297 38.0015 39.22 37.2726C38.205 36.661 37.2253 35.6817 36.31 34.254C35.8342 34.9984 35.2523 35.759 34.5852 36.4377C33.668 37.371 32.5614 38.178 31.3204 38.5479C30.0593 38.9239 28.6882 38.8384 27.3058 38.0298C26.1076 37.329 24.9297 36.1025 23.7956 34.229C22.9745 35.3516 21.7227 36.5354 20.1479 37.0701C19.1553 37.4071 18.0404 37.4829 16.8505 37.1242C15.7809 36.8018 14.6792 36.1374 13.5644 35.0464C12.0838 36.1535 9.87449 37.3789 7.59644 37.7636C7.35681 37.804 7.1154 37.8353 6.87316 37.8562Z" fill="#094361" stroke="#094361"/>
</g>
<defs>
<clipPath id="clip0_2_2">
<rect width="68" height="48" fill="white"/>
</clipPath>
</defs>
</svg>
