<svg width="21" height="21" xmlns="http://www.w3.org/2000/svg" xmlns:xlink="http://www.w3.org/1999/xlink" xml:space="preserve" overflow="hidden"><g transform="translate(-636 -438)"><path d="M650 444.562C650 446.495 648.433 448.062 646.5 448.062 644.567 448.062 643 446.495 643 444.562 643 442.63 644.567 441.062 646.5 441.062 648.433 441.062 650 442.63 650 444.562Z" fill="#F2F2F2"/><path d="M653.5 455.938 653.5 452.438C653.5 451.913 653.237 451.388 652.8 451.038 651.838 450.25 650.612 449.725 649.388 449.375 648.513 449.112 647.55 448.938 646.5 448.938 645.537 448.938 644.575 449.112 643.612 449.375 642.388 449.725 641.162 450.337 640.2 451.038 639.763 451.388 639.5 451.913 639.5 452.438L639.5 455.938 653.5 455.938Z" fill="#FFFFFF"/></g></svg>