<svg width="57" height="23" viewBox="0 0 57 23" fill="none" xmlns="http://www.w3.org/2000/svg">
<path d="M11 8C11 8.55228 10.5523 9 10 9C9.44771 9 9 8.55228 9 8C9 7.44771 9.44771 7 10 7C10.5523 7 11 7.44771 11 8Z" fill="#094361"/>
<path d="M19.5299 8.24253C19.6729 8.81472 19.7767 9.72085 19.6391 10.5329C19.5015 11.3443 19.171 11.8546 18.6286 12.0715L19.3714 13.9285C20.829 13.3454 21.4151 12.0223 21.6109 10.8671C21.8066 9.71248 21.6604 8.51861 21.4701 7.75746L19.5299 8.24253Z" fill="#094361"/>
<path d="M24.5 8C24.5 8.75023 24.3854 9.77691 24.1047 10.7127C23.8131 11.6846 23.4008 12.3643 22.9453 12.6679L24.0547 14.3321C25.0992 13.6357 25.6869 12.3987 26.0203 11.2873C26.3646 10.1398 26.5 8.91643 26.5 8H24.5Z" fill="#094361"/>
<path fill-rule="evenodd" clip-rule="evenodd" d="M44.8142 6.20893C39.7814 3.19402 33.733 1.61601 28.198 0.859218C22.3867 0.0646631 17.0551 0.163889 13.8925 0.505792L13.8842 0.506688L13.876 0.507722C3.83072 1.76338 0.395278 8.0815 0.00684899 11.3832L-0.00567627 11.4896L0.00464964 11.5963C0.423577 15.9252 3.11364 18.6928 6.85625 20.2585C10.5492 21.8034 15.3329 22.2211 20.2455 21.9358C25.1767 21.6495 30.3334 20.649 34.8309 19.2768C38.5412 18.1447 41.8669 16.7402 44.2581 15.2335C44.8788 17.2299 46.5333 18.6284 48.2803 19.5578C50.5111 20.7446 53.1468 21.3197 54.9005 21.495L56.2981 21.6348L53.5344 10.0271L56.2098 0.930537L55.3939 0.580855C54.3699 0.141966 53.2476 0.284267 52.2342 0.634565C51.2093 0.988862 50.1622 1.60058 49.1826 2.29779C47.5239 3.47839 45.9399 4.99027 44.8142 6.20893ZM2.59251 9.61898C2.71622 9.71889 2.86737 9.83885 3.04455 9.97699C3.49716 10.3299 4.06793 10.7619 4.6557 11.1949C5.87068 12.0902 7.04186 12.9029 7.44721 13.1056L6.55278 14.8944C5.95813 14.5971 4.62932 13.6598 3.4693 12.8051C2.95879 12.4289 2.4586 12.0519 2.03163 11.7224C2.45694 14.9641 4.48814 17.0998 7.62812 18.4134C8.89761 18.9445 10.3372 19.3341 11.9009 19.5965C12.1708 19.1471 12.514 18.4272 12.8762 17.4614C13.3267 16.2599 13.782 14.7449 14.1472 13.0405C14.8319 9.84535 15.1867 6.04832 14.6447 2.44073C14.4617 2.45746 14.2853 2.47503 14.1158 2.49331C7.02288 3.38238 3.80847 6.95611 2.59251 9.61898ZM16.6464 2.3069C17.2004 6.17556 16.8095 10.1614 16.1028 13.4595C15.718 15.2551 15.2358 16.8651 14.7488 18.1636C14.5114 18.7968 14.2663 19.3736 14.0231 19.8692C15.9439 20.0466 18.003 20.0627 20.1295 19.9392C24.8858 19.663 29.8854 18.6947 34.2472 17.3638C38.6309 16.0263 42.2771 14.3509 44.3861 12.7106L46 11.4554V13.5C46 15.3521 47.2675 16.7536 49.2197 17.7922C50.6374 18.5464 52.2848 19.0298 53.6855 19.2966L51.4656 9.97294L53.715 2.32489C53.473 2.35329 53.1982 2.41746 52.8877 2.52481C52.1136 2.79239 51.242 3.28692 50.3424 3.92721C48.5465 5.20543 46.8044 6.94493 45.7557 8.15493L45.1893 8.80843L44.4609 8.34227C39.6309 5.25101 33.5819 3.61395 27.927 2.84078C23.6473 2.25563 19.6426 2.17182 16.6464 2.3069Z" fill="#094361"/>
</svg>
