<svg width="41" height="41" xmlns="http://www.w3.org/2000/svg" xmlns:xlink="http://www.w3.org/1999/xlink" xml:space="preserve" overflow="hidden"><g transform="translate(-382 -222)"><path d="M415.483 226.698C414.143 228.412 412.143 229.481 409.974 229.645 411.457 231.246 412.173 233.411 411.939 235.581 413.254 233.838 415.268 232.761 417.448 232.634 415.965 231.033 415.249 228.868 415.483 226.698ZM415.881 232.014C414.737 232.298 413.667 232.822 412.741 233.552 412.575 232.377 412.159 231.252 411.524 230.25 412.67 229.957 413.744 229.431 414.678 228.705 414.842 229.879 415.253 231.005 415.885 232.008 415.887 232.01 415.886 232.013 415.884 232.014 415.884 232.015 415.883 232.015 415.882 232.016Z" stroke="#11FF7D" stroke-width="0.427083"/><path d="M398.016 238.49C399.622 236.433 402.031 235.159 404.635 234.988 402.927 233.237 402.073 230.674 402.286 227.898 400.68 229.956 398.271 231.23 395.667 231.401 397.375 233.15 398.229 235.756 398.016 238.49ZM397.284 232.047C398.827 231.688 400.263 230.965 401.469 229.937 401.628 231.507 402.16 233.016 403.022 234.338 401.479 234.697 400.045 235.42 398.839 236.447 398.68 234.877 398.146 233.368 397.284 232.047Z" stroke="#11FF7D" stroke-width="0.427083"/><path d="M415.142 238.746C414.201 239.956 412.785 240.703 411.255 240.796 412.287 241.933 412.784 243.456 412.622 244.982 413.563 243.772 414.979 243.026 416.508 242.932 415.477 241.795 414.979 240.273 415.142 238.746ZM413.378 243.126C413.249 242.52 413.03 241.938 412.727 241.397 413.318 241.217 413.877 240.95 414.388 240.604 414.517 241.209 414.737 241.792 415.039 242.333 414.449 242.513 413.889 242.78 413.378 243.126Z" stroke="#11FF7D" stroke-width="0.427083"/><path d="M387.198 256.24 389.614 258.656 410.168 238.101 407.753 235.682ZM389.614 257.448 388.406 256.24 403.71 240.933 404.919 242.141ZM405.522 241.537 404.314 240.329 407.751 236.891 408.96 238.101Z" stroke="#11FF7D" stroke-width="0.427083"/></g></svg>