<svg width="54" height="45" viewBox="0 0 54 45" fill="none" xmlns="http://www.w3.org/2000/svg">
<path d="M24 30.5C24 30.7761 23.7761 31 23.5 31C23.2239 31 23 30.7761 23 30.5C23 30.2239 23.2239 30 23.5 30C23.7761 30 24 30.2239 24 30.5Z" fill="#094361"/>
<path d="M20.5 26C20.7761 26 21 25.7761 21 25.5C21 25.2239 20.7761 25 20.5 25C20.2239 25 20 25.2239 20 25.5C20 25.7761 20.2239 26 20.5 26Z" fill="#094361"/>
<path d="M21 34.5C21 34.7761 20.7761 35 20.5 35C20.2239 35 20 34.7761 20 34.5C20 34.2239 20.2239 34 20.5 34C20.7761 34 21 34.2239 21 34.5Z" fill="#094361"/>
<path d="M22.5 24C22.7761 24 23 23.7761 23 23.5C23 23.2239 22.7761 23 22.5 23C22.2239 23 22 23.2239 22 23.5C22 23.7761 22.2239 24 22.5 24Z" fill="#094361"/>
<path d="M18.7774 10.916C19.0071 10.7628 19.0692 10.4524 18.916 10.2227C18.7628 9.99289 18.4524 9.9308 18.2226 10.084L16.7226 11.084C16.4929 11.2372 16.4308 11.5476 16.584 11.7773C16.7372 12.0071 17.0476 12.0692 17.2774 11.916L18.7774 10.916Z" fill="#094361"/>
<path d="M18.5 12C18.2239 12 18 12.2239 18 12.5C18 12.7761 18.2239 13 18.5 13H20.5C20.7761 13 21 12.7761 21 12.5C21 12.2239 20.7761 12 20.5 12H18.5Z" fill="#094361"/>
<path d="M18.7774 14.916C19.0071 14.7628 19.0692 14.4524 18.916 14.2227C18.7628 13.9929 18.4524 13.9308 18.2226 14.084L16.7227 15.084C16.4929 15.2372 16.4308 15.5476 16.584 15.7773C16.7372 16.0071 17.0476 16.0692 17.2774 15.916L18.7774 14.916Z" fill="#094361"/>
<path d="M24.4472 15.7236C24.5707 15.4766 24.4706 15.1763 24.2236 15.0528C23.9766 14.9293 23.6763 15.0294 23.5528 15.2764L22.5528 17.2764C22.4293 17.5234 22.5294 17.8237 22.7764 17.9472C23.0234 18.0707 23.3237 17.9706 23.4472 17.7236L24.4472 15.7236Z" fill="#094361"/>
<path d="M20.7236 16.9472C20.9706 16.8237 21.0707 16.5234 20.9472 16.2764C20.8237 16.0294 20.5234 15.9293 20.2764 16.0528L18.2764 17.0528C18.0294 17.1763 17.9293 17.4766 18.0528 17.7236C18.1763 17.9706 18.4766 18.0707 18.7236 17.9472L20.7236 16.9472Z" fill="#094361"/>
<path d="M47.7642 11.9245C47.9986 11.7786 48.0704 11.4702 47.9245 11.2358C47.7786 11.0014 47.4702 10.9296 47.2358 11.0755C46.377 11.61 45.3143 12.5753 44.1747 13.754C43.0273 14.9409 41.7746 16.3732 40.5332 17.8681C38.0502 20.8581 35.5963 24.1177 34.094 26.2082C33.9328 26.4324 33.984 26.7449 34.2082 26.906C34.4324 27.0672 34.7449 27.016 34.906 26.7918C36.3981 24.7156 38.8376 21.4752 41.3026 18.5069C42.5352 17.0226 43.7702 15.6112 44.8937 14.4491C46.025 13.2789 47.0164 12.39 47.7642 11.9245Z" fill="#094361"/>
<path d="M37.2774 11.916C37.5071 11.7628 37.5692 11.4524 37.416 11.2227C37.2628 10.9929 36.9524 10.9308 36.7226 11.084C36.2319 11.4111 36.0797 11.9363 36.0876 12.439C36.0952 12.9315 36.2523 13.4733 36.4619 13.9884C36.8838 15.0258 37.5855 16.1141 38.1 16.8C38.2657 17.0209 38.5791 17.0657 38.8 16.9C39.0209 16.7343 39.0657 16.4209 38.9 16.2C38.4145 15.5526 37.7662 14.5409 37.3881 13.6116C37.1977 13.1433 37.0923 12.7352 37.0874 12.4235C37.0828 12.1221 37.1681 11.9889 37.2774 11.916Z" fill="#094361"/>
<path d="M30.9472 18.7236C31.0707 18.4766 30.9706 18.1763 30.7236 18.0528C30.4766 17.9293 30.1763 18.0294 30.0528 18.2764C29.5687 19.2446 29.6906 20.3957 29.9696 21.3635C30.2528 22.346 30.7273 23.2424 31.084 23.7773C31.2372 24.0071 31.5476 24.0692 31.7774 23.916C32.0071 23.7628 32.0692 23.4524 31.916 23.2227C31.606 22.7576 31.1805 21.954 30.9304 21.0865C30.6761 20.2043 30.6313 19.3554 30.9472 18.7236Z" fill="#094361"/>
<path d="M44.9 21.2C44.7343 20.9791 44.4209 20.9343 44.2 21.1C43.9791 21.2657 43.9343 21.5791 44.1 21.8C44.684 22.5786 46.4053 23.8764 48.6857 22.9642C48.9421 22.8617 49.0668 22.5707 48.9642 22.3143C48.8617 22.0579 48.5707 21.9332 48.3143 22.0358C46.5947 22.7236 45.316 21.7547 44.9 21.2Z" fill="#094361"/>
<path d="M37.262 27.5742C37.0269 27.4294 36.7189 27.5028 36.5742 27.738C36.4294 27.9731 36.5028 28.2811 36.738 28.4258C37.8376 29.1026 39.5458 30.0218 41.0954 30.5713C41.8651 30.8442 42.6353 31.0404 43.288 31.0499C43.931 31.0593 44.6182 30.8816 44.9472 30.2236C45.0707 29.9766 44.9706 29.6763 44.7236 29.5528C44.4766 29.4293 44.1763 29.5294 44.0528 29.7764C43.9818 29.9184 43.8023 30.0573 43.3026 30.05C42.8127 30.0429 42.1641 29.8892 41.4296 29.6288C39.9709 29.1115 38.329 28.2308 37.262 27.5742Z" fill="#094361"/>
<path d="M7.4825 28.6311C7.55492 28.3647 7.39761 28.0899 7.13114 28.0175C6.86466 27.9451 6.58993 28.1024 6.5175 28.3689C6.31345 29.1196 6.25167 30.1899 6.28402 31.3719C6.31669 32.5657 6.4469 33.9152 6.64872 35.2462C6.85052 36.577 7.12532 37.8987 7.44999 39.0359C7.7709 40.1599 8.15307 41.1496 8.58775 41.7829C8.74401 42.0106 9.05525 42.0685 9.28293 41.9122C9.51061 41.756 9.56851 41.4447 9.41225 41.2171C9.07293 40.7227 8.72596 39.8625 8.41157 38.7613C8.10094 37.6734 7.83427 36.3945 7.63742 35.0963C7.4406 33.7982 7.31499 32.4902 7.28364 31.3446C7.25197 30.1873 7.31798 29.2365 7.4825 28.6311Z" fill="#094361"/>
<path d="M12.4629 28.8109C12.3584 28.5553 12.0665 28.4327 11.8109 28.5371C11.5553 28.6416 11.4327 28.9335 11.5371 29.1891L11.5378 29.1908L11.5404 29.1971L11.551 29.2235L11.5677 29.2653L11.5925 29.3282C11.6286 29.4199 11.6806 29.5542 11.7436 29.7224L11.7765 29.8106C11.7953 29.8614 11.815 29.9148 11.8354 29.9707C11.9467 30.276 12.0791 30.6533 12.2142 31.0712C12.5671 32.162 12.9258 33.4891 13.0013 34.5359C13.0883 35.7433 12.8513 37.311 12.5798 38.6082C12.4455 39.2502 12.3053 39.8139 12.1988 40.2168C12.1456 40.4182 12.1009 40.579 12.0696 40.6891C12.054 40.7441 12.0417 40.7863 12.0334 40.8146L12.0241 40.8463L12.0218 40.854L12.0213 40.8557C11.9417 41.1201 12.0915 41.3993 12.356 41.4788C12.6204 41.5583 12.8993 41.4085 12.9788 41.144L12.5 41C12.9788 41.144 12.9788 41.1441 12.9788 41.144L12.9827 41.131L12.9931 41.0957C13.0021 41.065 13.0151 41.0202 13.0315 40.9625C13.0643 40.8471 13.1107 40.6803 13.1656 40.4724C13.2754 40.0569 13.4199 39.4758 13.5586 38.813C13.8333 37.5007 14.0963 35.8183 13.9987 34.4641C13.9141 33.2903 13.5228 31.8674 13.1657 30.7634C12.9854 30.2059 12.8102 29.7192 12.6801 29.3718C12.615 29.1979 12.5611 29.0586 12.5232 28.9623C12.5043 28.9142 12.4894 28.8768 12.4791 28.8512L12.4673 28.8218L12.4641 28.814L12.4632 28.8118L12.3644 28.8512L12.4629 28.8109Z" fill="#094361"/>
<path fill-rule="evenodd" clip-rule="evenodd" d="M13.04 0.313385L12.6784 0.617142C7.54153 4.93213 6.43458 9.73665 7.19532 13.9881C7.87272 17.7738 10.0209 21.0793 11.9998 23.197C11.6365 23.2986 11.2887 23.4666 10.9642 23.7035C10.9007 23.4249 10.8086 23.1413 10.6938 22.8592C10.4046 22.1481 9.95545 21.4064 9.38511 20.7114C8.24879 19.3267 6.587 18.0751 4.65031 17.6448C4.35936 17.5801 4.11208 17.5363 3.90734 17.515C3.71352 17.4949 3.51373 17.4898 3.34022 17.5327C3.15682 17.5782 2.87778 17.7198 2.82478 18.0618C2.78589 18.3128 2.90573 18.5247 2.97188 18.6292C3.12541 18.8715 3.40717 19.154 3.70575 19.4345C3.90484 19.6216 4.13672 19.8304 4.38067 20.0502C4.51456 20.1708 4.65236 20.2949 4.7901 20.4202C5.58719 21.1456 6.42727 21.9528 6.9641 22.736C7.32964 23.2694 7.49877 23.706 7.49615 24.064C6.99086 23.7993 6.44216 23.6363 5.89766 23.7086C5.19238 23.8023 4.6351 24.2651 4.24584 25.0567C3.58249 24.9317 2.74367 24.8636 2.03451 25.0195C1.59651 25.1158 1.14462 25.3115 0.839742 25.6984C0.536589 26.0831 0.439709 26.5779 0.535989 27.1467C0.532151 27.1779 0.527401 27.2177 0.521975 27.2656C0.507563 27.3928 0.488355 27.5771 0.468704 27.809C0.429422 28.2727 0.388253 28.928 0.380258 29.6989C0.36433 31.2346 0.47959 33.2556 1.01938 35.1378C2.07183 38.8077 3.05883 40.7611 4.6783 42.4761C5.45253 43.2961 6.38757 44.1197 7.39527 44.3793C7.91954 44.5144 8.46909 44.4986 9.01001 44.2517C9.40673 44.0706 9.77493 43.7763 10.1165 43.3686C10.3545 43.5195 10.6311 43.6329 10.9044 43.7149C11.4314 43.873 12.0581 43.9482 12.6753 43.9067C13.8708 43.8264 15.2633 43.2679 15.5311 41.738L15.5345 41.7249L15.5597 41.6268C15.5816 41.5411 15.6136 41.4152 15.6539 41.2541C15.7344 40.932 15.8482 40.4689 15.9816 39.904C16.1152 39.3382 16.2685 38.6698 16.4278 37.9382C16.6564 38.2222 16.9518 38.458 17.2777 38.6497C17.878 39.0028 18.6292 39.2368 19.4178 39.3682C20.7483 39.5899 22.2764 39.5342 23.5345 39.183L23.5404 39.197C23.8735 39.9742 24.3322 40.5016 24.8954 40.7903C25.4576 41.0785 26.0595 41.0957 26.6171 40.9764C27.7068 40.7433 28.7397 39.9675 29.3536 39.3535L29.5 39.2071V39C29.5137 39 29.5276 38.9994 29.5415 38.9983C30.5837 38.9114 32.1509 38.6005 33.4748 37.9341C34.672 37.3315 35.7858 36.3723 35.9726 34.931C37.1814 35.4088 38.4747 35.7765 39.3876 35.9872L39.397 35.9894L39.4064 35.9912C43.7289 36.8145 46.3251 35.716 47.7371 33.838C49.0105 32.1444 49.2276 29.9332 49.0447 28.2999C50.7202 27.5033 51.8844 26.5478 52.639 25.4962C53.4468 24.3705 53.7648 23.1629 53.7625 21.9865C53.7583 19.7845 52.6356 17.7077 51.5599 16.3891C52.4974 13.3907 52.6742 11.1784 52.2569 9.5945C51.8145 7.91486 50.7157 6.98848 49.3158 6.61674C47.9563 6.25574 46.333 6.41922 44.7598 6.8185C43.2807 7.19389 41.7979 7.79024 40.5351 8.42139C38.9771 7.40083 37.5751 6.96336 36.3216 6.98759C34.9944 7.01326 33.8951 7.55539 33.014 8.35469C31.3551 9.85974 30.4328 12.305 30.0564 14.1594C29.0765 14.6457 28.2707 15.1924 27.6198 15.7871L13.04 0.313385ZM35 34.5108C34.3924 34.2224 33.827 33.8965 33.3922 33.5368C33.1646 33.3485 32.9492 33.1312 32.7871 32.8862C32.2098 33.4636 31.5177 34.2594 30.9165 35.1642C30.3189 36.0636 29.8342 37.0361 29.6195 37.9868C30.572 37.8894 31.9133 37.6005 33.0252 37.0409C34.2086 36.4453 34.9949 35.6216 35 34.5108ZM23.659 38.0948C24.1751 35.6477 25.5972 31.2669 28.3402 27.9991C27.2662 26.7056 26.1304 24.8494 25.6299 22.8371C25.3483 21.7044 25.2668 20.5113 25.5168 19.3435C25.4372 19.3291 25.3378 19.3163 25.2182 19.306C24.8758 19.2766 24.4259 19.2729 23.9269 19.2873C22.9597 19.3152 21.8592 19.4092 21.1174 19.4901C18.4374 20.5068 15.7972 22.3135 14.3946 23.4148C15.7758 24.0162 16.9796 25.3649 17.5162 26.9747C17.6645 27.4196 17.7288 27.9855 17.7429 28.6059C17.7571 29.2334 17.7204 29.9494 17.649 30.7108C17.5063 32.2337 17.2217 33.9702 16.9078 35.6023C16.8462 35.923 16.7833 36.24 16.72 36.551C16.8477 36.6137 16.9479 36.73 16.9851 36.8787C17.0661 37.2029 17.3209 37.5149 17.7848 37.7878C18.247 38.0597 18.8708 38.2632 19.5822 38.3818C20.9486 38.6095 22.5203 38.5053 23.659 38.0948ZM13.2556 23.0515C13.7208 22.6591 14.4448 22.0989 15.3357 21.4882C11.8962 17.3486 10.8145 13.6417 10.9253 10.644C11.0387 7.57767 12.3994 5.30396 13.6598 4.13361C13.8621 3.94571 14.1785 3.95741 14.3664 4.15977C14.5543 4.36214 14.5426 4.6785 14.3402 4.86639C13.2673 5.86272 12.0279 7.88901 11.9247 10.681C11.8239 13.4059 12.8046 16.9093 16.1741 20.932C17.5372 20.0572 19.1692 19.1525 20.8244 18.5318L20.8828 18.5099L20.9448 18.5031C21.7033 18.4188 22.8677 18.3174 23.8981 18.2877C24.4117 18.2729 24.9054 18.2755 25.3037 18.3096C25.4819 18.3249 25.6528 18.3475 25.8035 18.3815C26.0531 17.7363 26.419 17.1066 26.9248 16.5077L12.9635 1.6904C8.41062 5.69017 7.49955 10.011 8.17968 13.8119C8.87455 17.6953 11.2429 21.0868 13.2556 23.0515ZM40.7293 9.44432C41.9951 8.79102 43.5113 8.16708 45.0058 7.78777C46.5108 7.40579 47.9395 7.28592 49.0592 7.58325C50.1385 7.86986 50.946 8.54349 51.2899 9.84924C51.647 11.2045 51.5134 13.2797 50.5241 16.3465L50.4377 16.6146L50.6222 16.8275C51.6618 18.0271 52.7587 19.9902 52.7625 21.9885C52.7644 22.9746 52.5011 23.9732 51.8266 24.9132C51.1492 25.8571 50.0367 26.7699 48.2969 27.5431L47.9463 27.6989L48.0061 28.078C48.2446 29.5881 48.0884 31.7068 46.9379 33.237C45.8257 34.7162 43.6744 35.7838 39.603 35.0106C38.5396 34.7646 36.9541 34.2997 35.6436 33.7069C34.984 33.4086 34.4203 33.0895 34.0296 32.7663C33.622 32.4291 33.5 32.1697 33.5 32V30.8981L32.6707 31.6237C31.9746 32.2328 30.9441 33.3157 30.0836 34.6108C29.2694 35.8361 28.5685 37.3094 28.5047 38.7832C27.9522 39.2983 27.1596 39.8377 26.4079 39.9986C26.0113 40.0834 25.657 40.0569 25.3515 39.9004C25.0687 39.7554 24.772 39.4703 24.5174 38.9315C24.8844 36.7333 26.3314 31.7547 29.3737 28.3322L29.669 28L29.3737 27.6678C28.2952 26.4545 27.0958 24.5879 26.6004 22.5957C26.1094 20.6214 26.3144 18.5664 27.9652 16.8462C28.6205 16.1635 29.5157 15.5195 30.714 14.9519L30.946 14.842L30.9919 14.5894C31.3169 12.8022 32.1876 10.4546 33.686 9.09532C34.4216 8.42795 35.2973 8.00758 36.3409 7.98741C37.3921 7.96709 38.6744 8.35167 40.2167 9.41202L40.4634 9.58159L40.7293 9.44432ZM8.40871 24.6526C8.5719 24.7659 8.71458 24.8619 8.84804 24.9417C9.06671 25.0725 9.2103 25.1275 9.31587 25.1419C9.43662 25.1584 9.64212 25.1443 10.0593 24.6293C10.0814 24.263 9.99106 23.7854 9.76754 23.236C9.52097 22.6298 9.12733 21.9737 8.61208 21.3458C7.57723 20.0847 6.09668 18.9906 4.43337 18.6209C4.37351 18.6076 4.31683 18.5956 4.26322 18.5846L4.30665 18.6263L4.35244 18.6699L4.39045 18.7057C4.58157 18.8852 4.79789 19.0801 5.03399 19.2927L5.03571 19.2943L5.03775 19.2961L5.04361 19.3014L5.05343 19.3102C5.18433 19.4281 5.32121 19.5515 5.46314 19.6806C6.25596 20.4021 7.1783 21.2797 7.78895 22.1707C8.2942 22.9079 8.68185 23.8 8.40871 24.6526ZM3.79855 18.061C3.79887 18.0611 3.80071 18.0646 3.80313 18.0711C3.79944 18.0642 3.79824 18.0609 3.79855 18.061ZM1.53716 27.2011L1.53693 27.2028L1.53589 27.2106L1.53161 27.2438C1.52784 27.2737 1.52233 27.3189 1.51561 27.3782C1.50218 27.4968 1.48392 27.6717 1.46513 27.8934C1.42753 28.3372 1.3879 28.9675 1.3802 29.7093C1.36475 31.1989 1.47857 33.1115 1.98063 34.8622C3.01185 38.458 3.94117 40.2389 5.40538 41.7896C6.17299 42.6025 6.93795 43.2288 7.64479 43.411C7.97778 43.4968 8.28914 43.4815 8.59481 43.342C8.9089 43.1986 9.26005 42.9041 9.62581 42.3555L10.0418 41.7315L10.4579 42.3555C10.5255 42.457 10.7552 42.6261 11.1918 42.757C11.6023 42.8802 12.1089 42.9425 12.6083 42.909C13.6403 42.8397 14.4065 42.4034 14.5486 41.5506L14.5523 41.5284L14.558 41.5066L14.5663 41.4747L14.5909 41.3791L14.6141 41.288C14.633 41.2134 14.6564 41.1207 14.6837 41.0116C14.7633 40.6931 14.8761 40.2343 15.0083 39.6742C15.2729 38.5536 15.6151 37.0295 15.9258 35.4134C16.237 33.7955 16.5149 32.0945 16.6534 30.6174C16.7226 29.8788 16.7562 29.2042 16.7431 28.6286C16.7299 28.0459 16.6692 27.5961 16.5675 27.291C16.1082 25.9131 15.0764 24.7924 13.9707 24.321C13.4234 24.0876 12.8751 24.0197 12.3714 24.1341C11.8732 24.2474 11.3773 24.548 10.9408 25.1258L10.9391 25.128C10.4141 25.8149 9.87431 26.2274 9.18058 26.1327C8.87493 26.0909 8.59287 25.9543 8.33487 25.8C8.1163 25.6693 7.87886 25.503 7.63053 25.329L7.62916 25.328L7.6273 25.3267L7.49535 25.2343C6.91054 24.826 6.40794 24.6496 6.02934 24.6999C5.70961 24.7424 5.32346 24.9725 5.01 25.8084L4.85336 26.2261L4.42057 26.1179C3.78422 25.9588 2.89728 25.8538 2.24917 25.9962C1.92884 26.0666 1.73073 26.1834 1.62519 26.3173C1.53279 26.4346 1.45298 26.639 1.53213 27.0348L1.54868 27.1175L1.53716 27.2011Z" fill="#094361"/>
</svg>
