<svg width="64" height="53" viewBox="0 0 64 53" fill="none" xmlns="http://www.w3.org/2000/svg">
<g clip-path="url(#clip0_2_10)">
<path d="M28 36C28 36.5522 27.7761 37 27.5 37C27.2239 37 27 36.5522 27 36C27 35.4478 27.2239 35 27.5 35C27.7761 35 28 35.4478 28 36Z" stroke="#094361"/>
<path d="M24.5 31C24.7761 31 25 30.7761 25 30.5C25 30.2239 24.7761 30 24.5 30C24.2239 30 24 30.2239 24 30.5C24 30.7761 24.2239 31 24.5 31Z" stroke="#094361"/>
<path d="M25 40.5C25 40.7761 24.7761 41 24.5 41C24.2239 41 24 40.7761 24 40.5C24 40.2239 24.2239 40 24.5 40C24.7761 40 25 40.2239 25 40.5Z" stroke="#094361"/>
<path d="M26.5 28C26.7761 28 27 27.7761 27 27.5C27 27.2239 26.7761 27 26.5 27C26.2239 27 26 27.2239 26 27.5C26 27.7761 26.2239 28 26.5 28Z" stroke="#094361"/>
<path d="M20.8219 10.916C21.0056 10.7628 21.0553 10.4524 20.9328 10.2227C20.8102 9.99293 20.5619 9.93085 20.3781 10.084L19.1781 11.084C18.9944 11.2372 18.9447 11.5476 19.0672 11.7773C19.1898 12.0071 19.4381 12.0692 19.6219 11.916L20.8219 10.916Z" stroke="#094361"/>
<path d="M22.8219 15.458C23.0056 15.3814 23.0553 15.2262 22.9328 15.1114C22.8102 14.9965 22.5619 14.9654 22.3781 15.042L21.1782 15.542C20.9944 15.6186 20.9447 15.7738 21.0672 15.8886C21.1898 16.0035 21.4381 16.0346 21.6219 15.958L22.8219 15.458Z" stroke="#094361"/>
<path d="M26.9736 18.4824C27.0353 18.3178 26.9853 18.1176 26.8618 18.0353C26.7383 17.9529 26.5881 18.0197 26.5264 18.1843L26.0264 19.5176C25.9647 19.6822 26.0147 19.8824 26.1382 19.9647C26.2617 20.0471 26.4119 19.9803 26.4736 19.8157L26.9736 18.4824Z" stroke="#094361"/>
<path d="M23.8157 18.9472C23.9803 18.8237 24.0471 18.5234 23.9647 18.2765C23.8824 18.0295 23.6822 17.9294 23.5176 18.0529L22.1843 19.0528C22.0197 19.1763 21.9529 19.4766 22.0353 19.7235C22.1176 19.9705 22.3178 20.0706 22.4824 19.9471L23.8157 18.9472Z" stroke="#094361"/>
<path d="M55.4589 13.6781L55.4589 13.6781C55.4753 13.6674 55.4906 13.6482 55.4971 13.6191C55.5037 13.5899 55.4989 13.5607 55.4847 13.537C55.4711 13.5142 55.4542 13.5048 55.4405 13.5015C55.4272 13.4983 55.4134 13.4997 55.3981 13.5096L55.3981 13.5096C54.4721 14.1084 53.2929 15.2154 51.9943 16.611C50.6946 18.0079 49.2716 19.6982 47.8571 21.468L47.5247 21.2024L47.8571 21.468C45.0282 25.0077 42.2306 28.8688 40.5187 31.3441L40.5186 31.3442C40.5035 31.3661 40.4967 31.3944 40.5015 31.4243C40.5062 31.4542 40.5205 31.4753 40.5371 31.4877L40.5372 31.4878C40.5527 31.4993 40.5668 31.5015 40.5799 31.4992C40.5932 31.497 40.6098 31.4892 40.6242 31.4683L40.6242 31.4683C42.3344 28.9957 45.1293 25.1381 47.9552 21.6023C49.3682 19.8344 50.7882 18.1478 52.0838 16.7553M55.4589 13.6781L52.0838 16.7553M55.4589 13.6781C54.5488 14.2667 53.3805 15.3617 52.0838 16.7553M55.4589 13.6781L52.4499 17.0958L52.0838 16.7553" fill="#094361" stroke="#094361"/>
<path d="M43.3878 13.6337L43.3878 13.6337C43.2416 13.7165 43.0978 13.8439 42.999 14.0391C42.9044 14.2262 42.8694 14.4399 42.8735 14.6698L42.8735 14.67C42.8822 15.1398 43.0625 15.6927 43.3353 16.2627L43.3354 16.2628C43.8824 17.4049 44.8053 18.6244 45.4878 19.3975L45.4878 19.3976C45.4978 19.4089 45.4998 19.4155 45.4999 19.416L45.4999 19.416C45.5001 19.4166 45.5 19.4162 45.5 19.4162C45.5 19.4163 45.4993 19.4204 45.4943 19.4278C45.4893 19.4351 45.4784 19.4478 45.4566 19.4616C45.3464 19.5318 45.1924 19.4964 45.1388 19.4357C44.448 18.6534 43.5171 17.4229 42.9654 16.2706L42.9654 16.2705C42.689 15.6936 42.5088 15.1383 42.5003 14.6698L42.5003 14.6696C42.4919 14.2171 42.6434 13.8024 43.1188 13.5331L43.1188 13.5331C43.24 13.4645 43.3879 13.5132 43.4313 13.5685L43.4314 13.5686C43.4357 13.5741 43.4378 13.578 43.4389 13.5801C43.4396 13.5816 43.4399 13.5825 43.44 13.583C43.44 13.5831 43.44 13.5831 43.44 13.5832C43.4398 13.5842 43.4383 13.5896 43.4316 13.5982C43.425 13.6068 43.4119 13.6201 43.3878 13.6337Z" fill="#094361" stroke="#094361"/>
<path d="M35.7981 24.7692L35.7981 24.7692C35.4458 23.6879 35.3328 22.5151 35.8677 21.5686C35.8769 21.5523 35.9023 21.5252 35.955 21.5096C36.0074 21.4942 36.0656 21.4973 36.1146 21.519C36.162 21.5399 36.1762 21.5662 36.1796 21.5753C36.1816 21.5803 36.1816 21.5834 36.1815 21.5849C36.1814 21.5859 36.1811 21.5901 36.1764 21.5983C35.6566 22.5182 35.7632 23.6785 36.1142 24.7558L36.1142 24.7559C36.4644 25.8307 37.055 26.8168 37.4898 27.394L37.4899 27.3941C37.4975 27.4042 37.4992 27.4105 37.4996 27.4125C37.5001 27.4148 37.5002 27.4173 37.4994 27.4208C37.4983 27.4257 37.4914 27.4483 37.4523 27.4713C37.3521 27.5304 37.2293 27.4894 37.1915 27.4393L37.1914 27.4392C36.7472 26.8499 36.1511 25.8527 35.7981 24.7692Z" fill="#094361" stroke="#094361"/>
<path d="M52.5346 25.8068L52.5345 25.8067C52.5099 25.7635 52.4939 25.6953 52.5021 25.6196C52.5036 25.6064 52.5056 25.5942 52.508 25.5831C52.7648 26.0046 53.2376 26.5424 53.8923 26.8741C54.5938 27.2296 55.488 27.3368 56.4738 26.8448C56.4778 26.8537 56.4818 26.8643 56.4856 26.8769L56.4857 26.877C56.5062 26.9447 56.5038 27.0203 56.484 27.0813C56.4685 27.1288 56.4508 27.1454 56.4484 27.1479C55.4673 27.6634 54.6413 27.5492 53.9854 27.2119C53.3026 26.8607 52.7905 26.2564 52.5346 25.8068ZM52.4486 25.4871C52.4478 25.4865 52.4474 25.4862 52.4474 25.4861C52.4474 25.4861 52.4479 25.4864 52.4486 25.4871Z" fill="#094361" stroke="#094361"/>
<path d="M50.9945 36.4996L50.9946 36.4996C51.6375 36.5108 52.1984 36.3086 52.4764 35.6431C52.5421 35.4859 52.4612 35.346 52.4179 35.3201C52.4151 35.3185 52.4131 35.3175 52.4118 35.317C52.4115 35.3171 52.4113 35.3172 52.411 35.3173C52.4056 35.3194 52.3733 35.3356 52.3469 35.3987C52.2655 35.5936 52.1175 35.7865 51.8679 35.9191C51.6315 36.0447 51.3394 36.0973 50.9943 36.0912L50.9945 36.4996ZM50.9945 36.4996C50.3237 36.4879 49.4888 36.2417 48.6017 35.8652L50.9945 36.4996ZM43.5998 32.507L43.6 32.5072L48.6017 35.8652C46.8287 35.1126 44.8544 33.8428 43.5767 32.9014L43.5766 32.9013C43.521 32.8604 43.46 32.7039 43.532 32.564L43.5321 32.5638C43.5582 32.5131 43.5842 32.5019 43.5886 32.5003C43.5905 32.5011 43.5943 32.503 43.5998 32.507Z" fill="#094361" stroke="#094361"/>
<path d="M9.01738 33.5799L9.01739 33.5799C9.01958 33.5725 9.02012 33.5646 9.012 33.5516C9.00312 33.5373 8.98169 33.5157 8.93964 33.5052L9.01738 33.5799ZM9.01738 33.5799C8.79022 34.3499 8.71076 35.5011 8.75045 36.8373C8.79012 38.1727 8.94868 39.69 9.19578 41.1913L9.68915 41.1101L9.19579 41.1913C9.44291 42.6926 9.77849 44.1771 10.172 45.4467C10.5661 46.7182 11.0166 47.7684 11.4901 48.404L11.4902 48.404C11.4967 48.4128 11.4986 48.4189 11.4994 48.4222C11.5002 48.4258 11.5003 48.4296 11.4994 48.4341C11.4979 48.4413 11.4917 48.4591 11.4635 48.477L11.4634 48.477C11.4333 48.4961 11.3928 48.5047 11.3506 48.4975C11.3084 48.4903 11.282 48.4705 11.2691 48.4531L11.2691 48.4531C10.7823 47.7998 10.3282 46.7357 9.9342 45.4644C9.53953 44.191 9.20334 42.7035 8.95588 41.2002C8.70842 39.6969 8.5496 38.1771 8.50984 36.8388C8.47011 35.5018 8.54916 34.3431 8.77928 33.5632L8.77929 33.5632M9.01738 33.5799L8.77929 33.5632M8.77929 33.5632C8.78213 33.5536 8.79209 33.5344 8.82338 33.5179M8.77929 33.5632L8.82338 33.5179M8.82338 33.5179C8.85491 33.5013 8.8967 33.4944 8.93964 33.5052L8.82338 33.5179Z" stroke="#094361"/>
<path d="M14.6845 34.5501C14.6767 34.5338 14.6618 34.5182 14.6375 34.5083C14.6115 34.4977 14.5821 34.4969 14.5545 34.5078C14.5274 34.5186 14.5125 34.5361 14.5054 34.5526C14.4984 34.5686 14.4981 34.5843 14.5049 34.6007L14.5052 34.6013L14.5053 34.6016L14.5083 34.6086L14.5102 34.6131L14.5102 34.6131L14.5228 34.6436L14.5232 34.6444L14.5232 34.6444L14.543 34.6926L14.5439 34.6948L14.5439 34.6948L14.5734 34.7673L14.5735 34.7676C14.6175 34.8759 14.6805 35.0335 14.7566 35.2303L14.7568 35.231L14.796 35.3328L14.7965 35.334L14.7965 35.334C14.819 35.3929 14.8428 35.4553 14.8674 35.5209L14.8675 35.521C15.0017 35.8779 15.1616 36.3192 15.3248 36.8085L14.6845 34.5501ZM14.6845 34.5501L14.6876 34.5574L14.6907 34.5646M14.6845 34.5501L14.6907 34.5646M14.6907 34.5646L14.704 34.5967L14.7042 34.5971C14.7158 34.6252 14.733 34.6671 14.7551 34.7215L14.7552 34.7217C14.7993 34.8303 14.8624 34.9884 14.9389 35.1862L14.9389 35.1863C15.0917 35.5817 15.2975 36.1358 15.5092 36.77L15.5092 36.77C15.9321 38.0372 16.3808 39.6297 16.4766 40.9188C16.5872 42.4055 16.2879 44.2876 15.9625 45.794L15.9625 45.794C15.7997 46.5481 15.6299 47.2096 15.5009 47.6827L15.5009 47.6827C15.4365 47.9191 15.3821 48.1085 15.3439 48.239C15.3248 48.3041 15.3097 48.3545 15.2994 48.3886L15.2879 48.4262L15.2872 48.4287L15.2834 48.441C15.2834 48.441 15.2833 48.441 15.2833 48.441C15.2781 48.458 15.2655 48.4753 15.2417 48.4876C15.2178 48.5001 15.1886 48.5039 15.1592 48.4954L15.1592 48.4954C15.1009 48.4784 15.0902 48.4312 15.0984 48.4048L15.0993 48.4018L15.0994 48.4015L15.1 48.3995L15.102 48.3929L15.1027 48.3905L15.1138 48.3539L15.1138 48.3539C15.124 48.3203 15.1391 48.2702 15.1582 48.205L14.6907 34.5646ZM16.2863 40.9274L16.2863 40.9275C16.3956 42.3964 16.0995 44.2644 15.7746 45.7687L16.2863 40.9274ZM16.2863 40.9274C16.1916 39.6543 15.7472 38.0738 15.3248 36.8086L16.2863 40.9274ZM15.1481 34.3625L15.1481 34.3625L15.1481 34.3625ZM15.3146 47.6509C15.4431 47.1796 15.6124 46.5203 15.7746 45.7688L15.3146 47.6509Z" stroke="#094361"/>
<path fill-rule="evenodd" clip-rule="evenodd" d="M15.7047 1L15.2847 1.35088C9.31875 6.3353 8.03313 11.8852 8.91666 16.7962C9.70339 21.1692 12.1983 24.9875 14.4966 27.4338C14.0747 27.5511 13.6707 27.7452 13.2939 28.0189C13.2201 27.697 13.1131 27.3694 12.9798 27.0436C12.6439 26.2222 12.1223 25.3654 11.4599 24.5626C10.1402 22.963 8.21015 21.5173 5.96087 21.0202C5.62296 20.9455 5.33577 20.8949 5.09798 20.8703C4.87288 20.8471 4.64084 20.8412 4.43933 20.8907C4.22633 20.9433 3.90225 21.1069 3.84069 21.5019C3.79553 21.7919 3.93471 22.0366 4.01154 22.1573C4.18985 22.4372 4.51708 22.7636 4.86386 23.0876C5.09508 23.3037 5.36439 23.5449 5.64771 23.7988C5.80321 23.9381 5.96325 24.0815 6.12323 24.2262C7.04897 25.0641 8.02464 25.9966 8.64812 26.9013C9.07266 27.5174 9.26909 28.0218 9.26604 28.4353C8.6792 28.1295 8.04193 27.9412 7.40955 28.0248C6.59043 28.133 5.94321 28.6676 5.49112 29.582C4.7207 29.4376 3.74649 29.3589 2.92287 29.539C2.41418 29.6503 1.88935 29.8763 1.53526 30.3233C1.18318 30.7676 1.07066 31.3392 1.18248 31.9962C1.17802 32.0323 1.17251 32.0783 1.16621 32.1336C1.14947 32.2805 1.12716 32.4934 1.10434 32.7613C1.05871 33.2969 1.0109 34.0539 1.00162 34.9444C0.983116 36.7183 1.11698 39.0529 1.74389 41.2271C2.96621 45.4663 4.11252 47.7228 5.99338 49.7039C6.89257 50.6511 7.97853 51.6024 9.14888 51.9023C9.75777 52.0584 10.396 52.0401 11.0242 51.7549C11.485 51.5457 11.9126 51.2058 12.3093 50.7348C12.5857 50.9091 12.907 51.0401 13.2244 51.1348C13.8365 51.3175 14.5643 51.4043 15.2811 51.3564C16.6696 51.2636 18.2868 50.6185 18.5979 48.8512L18.6018 48.8361L18.6311 48.7228C18.6565 48.6238 18.6937 48.4784 18.7405 48.2923C18.834 47.9202 18.9662 47.3853 19.1211 46.7327C19.2762 46.0791 19.4543 45.307 19.6393 44.4619C19.9048 44.79 20.2479 45.0624 20.6264 45.2838C21.3236 45.6917 22.196 45.962 23.1119 46.1138C24.6571 46.3699 26.4319 46.3055 27.8931 45.8999L27.8999 45.916C28.2868 46.8138 28.8195 47.423 29.4736 47.7565C30.1265 48.0894 30.8256 48.1093 31.4732 47.9715C32.7388 47.7022 33.9384 46.8061 34.6514 46.0968L34.8214 45.9277V45.6885C34.8373 45.6885 34.8535 45.6878 34.8696 45.6865C36.08 45.5861 37.9002 45.227 39.4378 44.4572C40.8282 43.7611 42.1218 42.6531 42.3387 40.9882C43.7426 41.5401 45.2447 41.9649 46.3049 42.2083L46.3158 42.2108L46.3267 42.2129C51.3469 43.1639 54.3622 41.895 56.0021 39.7256C57.481 37.7693 57.7331 35.215 57.5207 33.3284C59.4666 32.4082 60.8187 31.3044 61.6951 30.0897C62.6333 28.7893 63.0027 27.3944 63 26.0355C62.9951 23.4919 61.6912 21.0929 60.4419 19.5697C61.5307 16.1061 61.736 13.5506 61.2514 11.721C60.7376 9.78077 59.4614 8.71067 57.8356 8.28126C56.2566 7.86425 54.3713 8.0531 52.5442 8.51432C50.8264 8.94795 49.1042 9.63682 47.6376 10.3659C45.8282 9.18699 44.1999 8.68165 42.744 8.70964C41.2026 8.7393 39.9259 9.36553 38.9026 10.2888C36.9759 12.0274 35.9048 14.852 35.4676 16.9941C34.3296 17.5558 33.3937 18.1874 32.6377 18.8743L15.7047 1ZM41.2091 40.5028C40.5035 40.1697 39.8468 39.7932 39.3418 39.3777C39.0775 39.1602 38.8273 38.9092 38.6391 38.6262C37.9686 39.2932 37.1648 40.2124 36.4665 41.2576C35.7725 42.2965 35.2096 43.4199 34.9602 44.5181C36.0664 44.4056 37.6242 44.0719 38.9156 43.4254C40.29 42.7374 41.2032 41.7859 41.2091 40.5028ZM28.0376 44.6428C28.637 41.8161 30.2887 36.7557 33.4744 32.9809C32.2271 31.4867 30.9079 29.3425 30.3267 27.018C29.9996 25.7096 29.905 24.3314 30.1953 22.9825C30.1029 22.9658 29.9874 22.951 29.8485 22.9391C29.4508 22.9052 28.9283 22.9009 28.3488 22.9175C27.2255 22.9498 25.9474 23.0583 25.0858 23.1518C21.9733 24.3262 18.9069 26.4132 17.2779 27.6854C18.8821 28.3801 20.2802 29.938 20.9034 31.7976C21.0756 32.3115 21.1503 32.9652 21.1667 33.6818C21.1832 34.4067 21.1405 35.2338 21.0576 36.1133C20.8919 37.8724 20.5613 39.8783 20.1968 41.7636C20.1252 42.1341 20.0522 42.5003 19.9787 42.8595C20.127 42.932 20.2433 43.0663 20.2866 43.2381C20.3806 43.6126 20.6765 43.973 21.2153 44.2882C21.7521 44.6023 22.4766 44.8374 23.3028 44.9744C24.8898 45.2374 26.7152 45.117 28.0376 44.6428ZM15.9551 27.2657C16.4954 26.8124 17.3362 26.1653 18.3709 25.4599C14.3763 20.6781 13.12 16.3961 13.2487 12.9333C13.3804 9.39127 14.9607 6.76481 16.4245 5.4129C16.6595 5.19585 17.027 5.20936 17.2452 5.44311C17.4634 5.67688 17.4498 6.04232 17.2148 6.25936C15.9687 7.41026 14.5292 9.75091 14.4094 12.976C14.2923 16.1237 15.4313 20.1706 19.3447 24.8174C20.9278 23.8069 22.8232 22.7618 24.7455 22.0448L24.8134 22.0195L24.8854 22.0117C25.7663 21.9143 27.1186 21.7972 28.3153 21.7629C28.9118 21.7458 29.4852 21.7488 29.9478 21.7882C30.1548 21.8058 30.3533 21.8319 30.5283 21.8712C30.8182 21.1259 31.2431 20.3985 31.8306 19.7067L15.6158 2.59065C10.3281 7.21094 9.26999 12.2021 10.0599 16.5927C10.8669 21.0786 13.6175 24.9962 15.9551 27.2657ZM47.8632 11.5475C49.3333 10.7929 51.0942 10.0721 52.8299 9.63396C54.5778 9.19272 56.2371 9.05426 57.5376 9.39771C58.7911 9.72879 59.7289 10.5069 60.1283 12.0153C60.543 13.5808 60.3879 15.9779 59.2389 19.5205L59.1385 19.8302L59.3528 20.0761C60.5602 21.4618 61.8342 23.7295 61.8386 26.0378C61.8408 27.1769 61.535 28.3304 60.7516 29.4162C59.9649 30.5066 58.6728 31.561 56.6522 32.4541L56.245 32.6341L56.3145 33.072C56.5915 34.8164 56.4101 37.2638 55.0739 39.0314C53.7822 40.7401 51.2836 41.9733 46.5551 41.0802C45.32 40.796 43.4786 40.259 41.9566 39.5742C41.1906 39.2296 40.5359 38.861 40.0821 38.4877C39.6087 38.0982 39.467 37.7985 39.467 37.6025V36.3296L38.5039 37.1678C37.6954 37.8714 36.4986 39.1223 35.4992 40.6183C34.5536 42.0337 33.7396 43.7356 33.6655 45.438C33.0238 46.033 32.1033 46.6561 31.2302 46.842C30.7696 46.9399 30.3581 46.9093 30.0033 46.7286C29.6749 46.5611 29.3303 46.2317 29.0346 45.6093C29.4608 43.0701 31.1414 37.3191 34.6747 33.3657L35.0177 32.9819L34.6747 32.5982C33.4221 31.1967 32.0292 29.0405 31.4538 26.7392C30.8836 24.4586 31.1216 22.0848 33.0389 20.0977C33.8 19.3091 34.8396 18.5652 36.2314 17.9095L36.5008 17.7826L36.5541 17.4908C36.9316 15.4263 37.9428 12.7145 39.683 11.1444C40.5374 10.3735 41.5544 9.88787 42.7665 9.86458C43.9873 9.8411 45.4766 10.2853 47.2678 11.5102L47.5544 11.7061L47.8632 11.5475ZM10.3259 29.1152C10.5154 29.2461 10.6811 29.357 10.8361 29.4492C11.0901 29.6003 11.2569 29.6638 11.3795 29.6804C11.5197 29.6995 11.7584 29.6832 12.2429 29.0883C12.2686 28.6652 12.1636 28.1135 11.904 27.4788C11.6177 26.7786 11.1605 26.0207 10.5621 25.2954C9.36021 23.8386 7.64069 22.5748 5.70892 22.1477C5.6394 22.1324 5.57357 22.1185 5.5113 22.1058L5.56174 22.154L5.61492 22.2044L5.65907 22.2457C5.88104 22.4531 6.13227 22.6782 6.40648 22.9238L6.40848 22.9256L6.41085 22.9277L6.41765 22.9338L6.42906 22.944C6.58109 23.0802 6.74006 23.2227 6.9049 23.3718C7.82568 24.2053 8.89689 25.219 9.6061 26.2483C10.1929 27.0998 10.6431 28.1303 10.3259 29.1152ZM4.97163 21.501C4.97163 21.501 4.97414 21.5051 4.97695 21.5127C4.97267 21.5047 4.97163 21.501 4.97163 21.501ZM2.34525 32.0591L2.34498 32.061L2.34377 32.0701L2.3388 32.1084C2.33442 32.1429 2.32802 32.1952 2.32022 32.2637C2.30462 32.4007 2.28341 32.6027 2.26159 32.8588C2.21792 33.3714 2.1719 34.0995 2.16295 34.9564C2.14501 36.6771 2.2772 38.8864 2.86029 40.9087C4.05796 45.0624 5.13727 47.1196 6.83781 48.9108C7.72932 49.8499 8.61775 50.5733 9.43867 50.7838C9.82541 50.8829 10.187 50.8652 10.542 50.7041C10.9068 50.5384 11.3146 50.1983 11.7394 49.5645L12.2226 48.8437L12.7058 49.5645C12.7843 49.6818 13.0511 49.8771 13.5582 50.0283C14.0349 50.1706 14.6233 50.2426 15.2033 50.2039C16.4019 50.1239 17.2918 49.6199 17.4568 48.6348L17.4611 48.6091L17.4677 48.5839L17.4773 48.5471L17.5059 48.4367L17.5329 48.3314C17.5548 48.2453 17.582 48.1382 17.6137 48.0122C17.7061 47.6442 17.8371 47.1143 17.9907 46.4673C18.298 45.1728 18.6954 43.4123 19.0563 41.5454C19.4177 39.6765 19.7405 37.7116 19.9013 36.0054C19.9817 35.1522 20.0207 34.3729 20.0055 33.708C19.9902 33.0349 19.9197 32.5154 19.8015 32.1629C19.2681 30.5713 18.0698 29.2767 16.7856 28.7322C16.15 28.4626 15.5132 28.3841 14.9282 28.5163C14.3496 28.6471 13.7736 28.9944 13.2667 29.6618L13.2647 29.6644C12.655 30.4578 12.028 30.9343 11.2223 30.8249C10.8674 30.7766 10.5398 30.6189 10.2401 30.4406C9.98629 30.2896 9.71052 30.0975 9.42211 29.8965L9.42052 29.8954L9.41836 29.8939L9.26511 29.7872C8.58591 29.3155 8.00219 29.1117 7.56248 29.1698C7.19115 29.2189 6.74267 29.4847 6.37862 30.4503L6.1967 30.9328L5.69405 30.8078C4.95499 30.6241 3.9249 30.5028 3.17218 30.6673C2.80015 30.7486 2.57006 30.8835 2.44748 31.0382C2.34017 31.1737 2.24748 31.4098 2.3394 31.867L2.35863 31.9625L2.34525 32.0591Z" fill="#094361" stroke="#094361"/>
</g>
<defs>
<clipPath id="clip0_2_10">
<rect width="64" height="53" fill="white"/>
</clipPath>
</defs>
</svg>
